<?xml version="1.0" encoding="UTF-8" standalone="no"?>
<svg
   width="222.01672"
   height="66"
   viewBox="0 0 222.01672 66"
   fill="none"
   version="1.1"
   id="svg18"
   sodipodi:docname="logo-symbol-wordmark.svg"
   inkscape:version="1.1.2 (0a00cf5339, 2022-02-04)"
   xmlns:inkscape="http://www.inkscape.org/namespaces/inkscape"
   xmlns:sodipodi="http://sodipodi.sourceforge.net/DTD/sodipodi-0.dtd"
   xmlns:xlink="http://www.w3.org/1999/xlink"
   xmlns="http://www.w3.org/2000/svg"
   xmlns:svg="http://www.w3.org/2000/svg">
  <defs
     id="defs22">
    <linearGradient
       inkscape:collect="always"
       xlink:href="#linearGradient13250"
       id="linearGradient1204"
       gradientUnits="userSpaceOnUse"
       gradientTransform="matrix(5.307734,0,0,5.307734,-200.9579,-503.47091)"
       x1="61.394905"
       y1="122.24464"
       x2="61.394905"
       y2="126.47612"
       spreadMethod="pad" />
    <linearGradient
       inkscape:collect="always"
       id="linearGradient13250">
      <stop
         style="stop-color:#cdffcc;stop-opacity:1"
         offset="0"
         id="stop13246" />
      <stop
         style="stop-color:#3333ff;stop-opacity:1"
         offset="1"
         id="stop13248" />
    </linearGradient>
  </defs>
  <sodipodi:namedview
     id="namedview20"
     pagecolor="#ffffff"
     bordercolor="#666666"
     borderopacity="1.0"
     inkscape:pageshadow="2"
     inkscape:pageopacity="0.0"
     inkscape:pagecheckerboard="0"
     showgrid="false"
     fit-margin-top="0"
     fit-margin-left="0"
     fit-margin-right="0"
     fit-margin-bottom="0"
     inkscape:zoom="2.2673129"
     inkscape:cx="133.63837"
     inkscape:cy="52.043985"
     inkscape:window-width="1920"
     inkscape:window-height="1036"
     inkscape:window-x="0"
     inkscape:window-y="24"
     inkscape:window-maximized="1"
     inkscape:current-layer="svg18" />
  <g
     id="g1032"
     transform="matrix(0.28230942,0,0,0.28230942,76.554729,61.504809)">
    <path
       id="ellipse3297"
       style="fill:#6c5d53;fill-opacity:1;stroke:none;stroke-width:6.37077;stroke-linecap:round;stop-color:#000000"
       d="M -158.26492,-207.86415 A 112.90721,111.89351 0 0 0 -271.17313,-95.969651 112.90721,111.89351 0 0 0 -158.26492,15.922923 112.90721,111.89351 0 0 0 -57.505131,-45.60635 H 504.48898 c 5.96587,0 10.76757,-4.801701 10.76757,-10.767572 v -77.830068 c 0,-5.96591 -4.8017,-10.76954 -10.76757,-10.76954 H -56.764911 a 112.90721,111.89351 0 0 0 -101.500009,-62.89062 z"
       inkscape:export-filename="/home/rlafuente/nextcloud/Manufactura WIP/ciberlandia/logos/logo-site.png"
       inkscape:export-xdpi="49.189999"
       inkscape:export-ydpi="49.189999" />
    <g
       id="g2196"
       transform="matrix(3.7795276,0,0,3.7795276,552.25239,-1090.7911)"
       inkscape:export-filename="/home/rlafuente/nextcloud/Manufactura WIP/ciberlandia/logos/logo-site.png"
       inkscape:export-xdpi="49.189999"
       inkscape:export-ydpi="49.189999">
      <ellipse
         style="fill:#cdffcc;fill-opacity:1;stroke:none;stroke-width:1.6856;stroke-linecap:round;stop-color:#000000"
         id="ellipse1576"
         cx="-187.99109"
         cy="260.56735"
         rx="29.873365"
         ry="29.605158" />
      <g
         id="g1646"
         transform="matrix(0.82593981,0,0,0.82593981,-341.2274,258.70473)">
        <ellipse
           style="fill:#3333ff;fill-opacity:1;stroke:none;stroke-width:1.88729;stroke-linecap:round;stop-color:#000000"
           id="ellipse1578"
           cx="185.52963"
           cy="2.5572422"
           rx="33.447948"
           ry="33.147648" />
        <path
           style="fill:none;stroke:#cdffcc;stroke-width:1.32292;stroke-linecap:round;stroke-miterlimit:4;stroke-dasharray:none;stroke-opacity:1"
           d="m 196.22441,-28.48168 h -14.57399 m -4.70144,0 h 0.0226 m 25.0875,2.606125 h -9.2099 m -22.58079,0 h 4.59951 m 31.12794,2.606127 H 193.9946 m -28.12294,0 h 9.72606 m 33.42302,2.606127 h -14.52278 m -16.92679,0 h 5.72281 m -8.18598,0 h -12.4539 m 33.33519,2.606125 h 15.45438 m -29.29714,0 h -5.54704 m -16.45813,0 h 12.76939 m 40.49791,2.606127 H 196.5892 m -21.2072,0 h 6.01085 m -9.50288,0 h -13.7638 m 33.33744,2.606128 h 23.53356 m -45.35597,0 h -13.13562 m 36.6305,2.606127 h 23.11985 m -23.36575,0 h -2.69181 m -10.00988,0 h 2.10987 m -13.33818,0 h -13.74833 m 38.26707,2.6061245 h 23.73622 m -25.71645,0 h -3.10016 m -7.98315,0 h 1.96375 m -20.93464,0 h -7.24036 m 39.24776,2.6061273 h 24.44371 m -31.90102,0 h -1.56432 m -30.97475,0 h 2.11336 m 62.7393,2.6061272 h -29.86282 m -3.38042,0 h 0.92831 m -2.25123,0 h -1.3639 m -29.43107,0 h 1.82323 m 63.68609,2.60612733 h -31.63654 m -34.15441,0 h 2.18233 M 213.98469,2.791837 h -27.60103 m -33.78075,0 h 2.44008 m 61.11362,2.6061272 h -12.14072 m -22.35127,0 h 5.35885 m -31.62692,0 h -2.64295 m 53.70784,2.6061273 h 9.99907 m -24.2392,0 h -1.69756 m -37.39376,0 h 2.8355 m 59.43516,2.6061275 h -6.84459 m -11.68671,0 h 8.97587 m -11.04184,0 h -13.39967 m -27.67003,0 h 3.07756 m 60.0252,2.606124 h -1.6637 m -36.31297,0 h 29.37891 m -50.23498,0 h -3.41626 m 22.71768,2.606128 h 35.60483 m -53.34728,0 h -3.85486 m 20.92653,2.606127 h 35.99884 m -51.18904,0 h -4.31476 m 19.92411,2.606127 h 35.14676 m -48.65696,0 h -4.64175 m 19.70438,2.606125 h 32.38689 m -45.40695,0 h -4.48295 m 29.32618,2.606127 h 18.03755 m -41.80841,0 h -2.29719 m 29.39448,2.606127 h 11.32105 m -4.37001,2.606125 h -5.84553"
           id="path1580" />
        <g
           id="g1644"
           style="font-variation-settings:normal;fill:none;fill-opacity:1;stroke:#000000;stroke-width:2;stroke-linecap:round;stroke-linejoin:miter;stroke-miterlimit:4;stroke-dasharray:none;stroke-dashoffset:0;stroke-opacity:1;stop-color:#000000"
           transform="matrix(0.26458333,0,0,0.26458333,32.715691,-121.02302)">
          <path
             fill="none"
             stroke="#000000"
             stroke-width="1.0001"
             stroke-miterlimit="22.9256"
             d="M 700.798,450.076 C 676.785,399.902 631.824,369.529 580.479,370.116"
             id="path1582"
             style="font-variation-settings:normal;fill:none;fill-opacity:1;stroke:#000000;stroke-width:2;stroke-linecap:round;stroke-linejoin:miter;stroke-miterlimit:4;stroke-dasharray:none;stroke-dashoffset:0;stroke-opacity:1;stop-color:#000000;stop-opacity:1" />
          <g
             id="g1642"
             style="font-variation-settings:normal;fill:none;fill-opacity:1;stroke:#000000;stroke-width:2;stroke-linecap:round;stroke-linejoin:miter;stroke-miterlimit:4;stroke-dasharray:none;stroke-dashoffset:0;stroke-opacity:1;stop-color:#000000;stop-opacity:1"
             transform="translate(40,300)">
            <g
               id="g1594"
               transform="translate(40)"
               style="font-variation-settings:normal;fill:none;fill-opacity:1;stroke:#000000;stroke-width:2;stroke-linecap:round;stroke-linejoin:miter;stroke-miterlimit:4;stroke-dasharray:none;stroke-dashoffset:0;stroke-opacity:1;stop-color:#000000;stop-opacity:1">
              <path
                 fill="none"
                 stroke="#000000"
                 stroke-width="1.0001"
                 stroke-miterlimit="22.9256"
                 d="m 533.052,46.813 c -16.856,6.039 -29.891,15.66 -33.665,23.711"
                 id="path1584"
                 style="font-variation-settings:normal;fill:none;fill-opacity:1;stroke:#000000;stroke-width:2;stroke-linecap:round;stroke-linejoin:miter;stroke-miterlimit:4;stroke-dasharray:none;stroke-dashoffset:0;stroke-opacity:1;stop-color:#000000;stop-opacity:1" />
              <path
                 fill="none"
                 stroke="#000000"
                 stroke-width="1.0001"
                 stroke-miterlimit="22.9256"
                 d="m 514.419,44.265 c -7.949,7.507 -12.666,15.598 -15.315,23.106"
                 id="path1586"
                 style="font-variation-settings:normal;fill:none;fill-opacity:1;stroke:#000000;stroke-width:2;stroke-linecap:round;stroke-linejoin:miter;stroke-miterlimit:4;stroke-dasharray:none;stroke-dashoffset:0;stroke-opacity:1;stop-color:#000000;stop-opacity:1" />
              <path
                 fill="none"
                 stroke="#000000"
                 stroke-width="1.0001"
                 stroke-miterlimit="22.9256"
                 d="m 479.305,43.084 c 14.283,6 18.754,16.177 19.239,25.869"
                 id="path1588"
                 style="font-variation-settings:normal;fill:none;fill-opacity:1;stroke:#000000;stroke-width:2;stroke-linecap:round;stroke-linejoin:miter;stroke-miterlimit:4;stroke-dasharray:none;stroke-dashoffset:0;stroke-opacity:1;stop-color:#000000;stop-opacity:1" />
              <path
                 fill="none"
                 stroke="#000000"
                 stroke-width="1.0001"
                 stroke-miterlimit="22.9256"
                 d="m 456.339,48.39 c 20.193,-0.212 32.769,8.045 40.209,18.886"
                 id="path1590"
                 style="font-variation-settings:normal;fill:none;fill-opacity:1;stroke:#000000;stroke-width:2;stroke-linecap:round;stroke-linejoin:miter;stroke-miterlimit:4;stroke-dasharray:none;stroke-dashoffset:0;stroke-opacity:1;stop-color:#000000;stop-opacity:1" />
              <path
                 fill="none"
                 stroke="#000000"
                 stroke-width="1.0001"
                 stroke-miterlimit="22.9256"
                 d="m 498.805,41.745 c 0,27.489 0,36.399 0,26.73"
                 id="path1592"
                 style="font-variation-settings:normal;fill:none;fill-opacity:1;stroke:#000000;stroke-width:2;stroke-linecap:round;stroke-linejoin:miter;stroke-miterlimit:4;stroke-dasharray:none;stroke-dashoffset:0;stroke-opacity:1;stop-color:#000000;stop-opacity:1" />
            </g>
            <g
               id="g1640"
               style="font-variation-settings:normal;fill:none;fill-opacity:1;stroke:#000000;stroke-width:2;stroke-linecap:round;stroke-linejoin:miter;stroke-miterlimit:4;stroke-dasharray:none;stroke-dashoffset:0;stroke-opacity:1;stop-color:#000000;stop-opacity:1">
              <path
                 fill="none"
                 stroke="#000000"
                 stroke-width="1.0001"
                 stroke-miterlimit="22.9256"
                 d="m 540.523,44.28 c 36.213,0 65.581,19.452 65.581,43.437 0,23.986 -29.368,43.438 -65.581,43.438 -36.215,0 -65.583,-19.452 -65.583,-43.438 0,-23.985 29.369,-43.437 65.583,-43.437 z"
                 id="path1596"
                 style="font-variation-settings:normal;fill:none;fill-opacity:1;stroke:#000000;stroke-width:2;stroke-linecap:round;stroke-linejoin:miter;stroke-miterlimit:4;stroke-dasharray:none;stroke-dashoffset:0;stroke-opacity:1;stop-color:#000000;stop-opacity:1" />
              <path
                 fill="none"
                 stroke="#000000"
                 stroke-width="1.0001"
                 stroke-miterlimit="22.9256"
                 d="m 538.252,55.068 c 19.596,0 35.487,9.663 35.487,21.577 0,11.915 -15.892,21.577 -35.487,21.577 -19.597,0 -35.488,-9.662 -35.488,-21.577 0,-11.914 15.891,-21.577 35.488,-21.577 z"
                 id="path1598"
                 style="font-variation-settings:normal;fill:none;fill-opacity:1;stroke:#000000;stroke-width:2;stroke-linecap:round;stroke-linejoin:miter;stroke-miterlimit:4;stroke-dasharray:none;stroke-dashoffset:0;stroke-opacity:1;stop-color:#000000;stop-opacity:1" />
              <path
                 fill="none"
                 stroke="#000000"
                 stroke-width="2.9999"
                 stroke-miterlimit="22.9256"
                 d="m 537.399,42.009 c 68.979,0 124.918,55.431 124.918,123.782 0,68.351 -55.938,123.783 -124.918,123.783 -68.979,0 -124.917,-55.432 -124.917,-123.783 0,-68.351 55.939,-123.782 124.917,-123.782 z"
                 id="path1600"
                 style="font-variation-settings:normal;fill:none;fill-opacity:1;stroke:#000000;stroke-width:5;stroke-linecap:round;stroke-linejoin:miter;stroke-miterlimit:4;stroke-dasharray:none;stroke-dashoffset:0;stroke-opacity:1;stop-color:#000000;stop-opacity:1" />
              <path
                 fill="none"
                 stroke="#000000"
                 stroke-width="1.0001"
                 stroke-miterlimit="22.9256"
                 d="m 566.588,285.599 c 14.691,-42.586 5.91,-116.212 -27.481,-214.064"
                 id="path1602"
                 style="font-variation-settings:normal;fill:none;fill-opacity:1;stroke:#000000;stroke-width:2;stroke-linecap:round;stroke-linejoin:miter;stroke-miterlimit:4;stroke-dasharray:none;stroke-dashoffset:0;stroke-opacity:1;stop-color:#000000;stop-opacity:1" />
              <path
                 fill="none"
                 stroke="#000000"
                 stroke-width="1.0001"
                 stroke-miterlimit="22.9256"
                 d="m 539.671,71.535 c 53.374,75.431 71.732,145.556 53.942,205.263"
                 id="path1604"
                 style="font-variation-settings:normal;fill:none;fill-opacity:1;stroke:#000000;stroke-width:2;stroke-linecap:round;stroke-linejoin:miter;stroke-miterlimit:4;stroke-dasharray:none;stroke-dashoffset:0;stroke-opacity:1;stop-color:#000000;stop-opacity:1" />
              <path
                 fill="none"
                 stroke="#000000"
                 stroke-width="1.0001"
                 stroke-miterlimit="22.9256"
                 d="m 540.239,70.967 c 66.706,54.015 94.47,118.461 83.076,184.822"
                 id="path1606"
                 style="font-variation-settings:normal;fill:none;fill-opacity:1;stroke:#000000;stroke-width:2;stroke-linecap:round;stroke-linejoin:miter;stroke-miterlimit:4;stroke-dasharray:none;stroke-dashoffset:0;stroke-opacity:1;stop-color:#000000;stop-opacity:1" />
              <path
                 fill="none"
                 stroke="#000000"
                 stroke-width="1.0001"
                 stroke-miterlimit="22.9256"
                 d="M 642.092,231.657 C 656.218,176.959 622.173,117.339 541.091,70.968"
                 id="path1608"
                 style="font-variation-settings:normal;fill:none;fill-opacity:1;stroke:#000000;stroke-width:2;stroke-linecap:round;stroke-linejoin:miter;stroke-miterlimit:4;stroke-dasharray:none;stroke-dashoffset:0;stroke-opacity:1;stop-color:#000000;stop-opacity:1" />
              <path
                 fill="none"
                 stroke="#000000"
                 stroke-width="1.0001"
                 stroke-miterlimit="22.9256"
                 d="m 541.091,70.683 c 80.163,24.887 118.77,75.428 115.833,124.35"
                 id="path1610"
                 style="font-variation-settings:normal;fill:none;fill-opacity:1;stroke:#000000;stroke-width:2;stroke-linecap:round;stroke-linejoin:miter;stroke-miterlimit:4;stroke-dasharray:none;stroke-dashoffset:0;stroke-opacity:1;stop-color:#000000;stop-opacity:1" />
              <path
                 fill="none"
                 stroke="#000000"
                 stroke-width="1.0001"
                 stroke-miterlimit="22.9256"
                 d="M 647.271,105.669 C 616.709,72.346 579.518,59.227 540.807,68.584 c 5.349,-5.817 24.615,-10.219 44.899,-8.638 6.807,0.53 13.56,2.749 20.111,4.78 3.675,1.139 6.086,2.219 9.609,2.908"
                 id="path1612"
                 style="font-variation-settings:normal;fill:none;fill-opacity:1;stroke:#000000;stroke-width:2;stroke-linecap:round;stroke-linejoin:miter;stroke-miterlimit:4;stroke-dasharray:none;stroke-dashoffset:0;stroke-opacity:1;stop-color:#000000;stop-opacity:1" />
              <path
                 fill="none"
                 stroke="#000000"
                 stroke-width="1.0001"
                 stroke-miterlimit="22.9256"
                 d="M 536.832,68.022 C 499.847,55.009 467.664,61.196 440.285,86.582"
                 id="path1614"
                 style="font-variation-settings:normal;fill:none;fill-opacity:1;stroke:#000000;stroke-width:2;stroke-linecap:round;stroke-linejoin:miter;stroke-miterlimit:4;stroke-dasharray:none;stroke-dashoffset:0;stroke-opacity:1;stop-color:#000000;stop-opacity:1" />
              <path
                 fill="none"
                 stroke="#000000"
                 stroke-width="1.0001"
                 stroke-miterlimit="22.9256"
                 d="M 537.116,69.266 C 502.409,61.67 465.785,72.458 433.207,97.087"
                 id="path1616"
                 style="font-variation-settings:normal;fill:none;fill-opacity:1;stroke:#000000;stroke-width:2;stroke-linecap:round;stroke-linejoin:miter;stroke-miterlimit:4;stroke-dasharray:none;stroke-dashoffset:0;stroke-opacity:1;stop-color:#000000;stop-opacity:1" />
              <path
                 fill="none"
                 stroke="#000000"
                 stroke-width="1.0001"
                 stroke-miterlimit="22.9256"
                 d="m 538.325,69.622 c -23.903,-4.254 -52.099,6.303 -82.098,24.414 -12.774,7.712 -30.421,27.667 -39.644,41.03"
                 id="path1618"
                 style="font-variation-settings:normal;fill:none;fill-opacity:1;stroke:#000000;stroke-width:2;stroke-linecap:round;stroke-linejoin:miter;stroke-miterlimit:4;stroke-dasharray:none;stroke-dashoffset:0;stroke-opacity:1;stop-color:#000000;stop-opacity:1" />
              <path
                 fill="none"
                 stroke="#000000"
                 stroke-width="1.0001"
                 stroke-miterlimit="22.9256"
                 d="M 535.128,71.132 C 492.529,85.524 442.361,92.416 414.071,179.709"
                 id="path1620"
                 style="font-variation-settings:normal;fill:none;fill-opacity:1;stroke:#000000;stroke-width:2;stroke-linecap:round;stroke-linejoin:miter;stroke-miterlimit:4;stroke-dasharray:none;stroke-dashoffset:0;stroke-opacity:1;stop-color:#000000;stop-opacity:1" />
              <path
                 fill="none"
                 stroke="#000000"
                 stroke-width="1.0001"
                 stroke-miterlimit="22.9256"
                 d="M 425.825,219.356 C 426.214,162.75 464.259,106.851 537.688,69.832 475.914,117.429 445.25,182.328 449.136,252.449"
                 id="path1622"
                 style="font-variation-settings:normal;fill:none;fill-opacity:1;stroke:#000000;stroke-width:2;stroke-linecap:round;stroke-linejoin:miter;stroke-miterlimit:4;stroke-dasharray:none;stroke-dashoffset:0;stroke-opacity:1;stop-color:#000000;stop-opacity:1" />
              <path
                 fill="none"
                 stroke="#000000"
                 stroke-width="1.0001"
                 stroke-miterlimit="22.9256"
                 d="m 537.874,70.399 c -53.887,72.109 -72.826,143.976 -58.521,205.113"
                 id="path1624"
                 style="font-variation-settings:normal;fill:none;fill-opacity:1;stroke:#000000;stroke-width:2;stroke-linecap:round;stroke-linejoin:miter;stroke-miterlimit:4;stroke-dasharray:none;stroke-dashoffset:0;stroke-opacity:1;stop-color:#000000;stop-opacity:1" />
              <path
                 fill="none"
                 stroke="#000000"
                 stroke-width="1.0001"
                 stroke-miterlimit="22.9256"
                 d="m 538.243,71.251 c -31.172,90.377 -39.426,163.53 -25.898,215.483"
                 id="path1626"
                 style="font-variation-settings:normal;fill:none;fill-opacity:1;stroke:#000000;stroke-width:2;stroke-linecap:round;stroke-linejoin:miter;stroke-miterlimit:4;stroke-dasharray:none;stroke-dashoffset:0;stroke-opacity:1;stop-color:#000000;stop-opacity:1" />
              <path
                 fill="none"
                 stroke="#000000"
                 stroke-width="1.0001"
                 stroke-miterlimit="22.9256"
                 d="m 500.062,48.985 c -13.316,4.542 -25.296,11.757 -35.94,21.644 -9.842,10.6 -14.786,21.734 -15.364,33.402 -0.356,13.405 5.121,25.741 16.566,37.276 11.892,11.846 28.637,19.997 50.37,24.317 24.495,4.498 47.877,2.672 70.278,-5.478 20.664,-7.527 35.094,-20.131 43.289,-37.811 6.858,-18.839 3.073,-36.297 -11.49,-52.508"
                 id="path1628"
                 style="font-variation-settings:normal;fill:none;fill-opacity:1;stroke:#000000;stroke-width:2;stroke-linecap:round;stroke-linejoin:miter;stroke-miterlimit:4;stroke-dasharray:none;stroke-dashoffset:0;stroke-opacity:1;stop-color:#000000;stop-opacity:1" />
              <path
                 fill="none"
                 stroke="#000000"
                 stroke-width="1.0001"
                 stroke-miterlimit="22.9256"
                 d="m 649.436,111.513 c 5.789,24.316 -4.275,47.03 -30.196,68.14 -20.708,14.652 -47.207,22.669 -79.496,23.916 -31.665,-0.178 -58.966,-8.373 -81.901,-24.584 -27.301,-21.778 -36.609,-46.317 -28.191,-73.618"
                 id="path1630"
                 style="font-variation-settings:normal;fill:none;fill-opacity:1;stroke:#000000;stroke-width:2;stroke-linecap:round;stroke-linejoin:miter;stroke-miterlimit:4;stroke-dasharray:none;stroke-dashoffset:0;stroke-opacity:1;stop-color:#000000;stop-opacity:1" />
              <path
                 fill="none"
                 stroke="#000000"
                 stroke-width="1.0001"
                 stroke-miterlimit="22.9256"
                 d="m 417.225,133.692 c -5.032,30.374 6.057,56.115 33.269,77.226 26.099,17.368 55.536,26.053 88.448,25.92 34.961,-0.713 63.598,-9.486 85.91,-26.188 22.49,-15.053 34.56,-36.92 36.208,-65.468"
                 id="path1632"
                 style="font-variation-settings:normal;fill:none;fill-opacity:1;stroke:#000000;stroke-width:2;stroke-linecap:round;stroke-linejoin:miter;stroke-miterlimit:4;stroke-dasharray:none;stroke-dashoffset:0;stroke-opacity:1;stop-color:#000000;stop-opacity:1" />
              <path
                 fill="none"
                 stroke="#000000"
                 stroke-width="1.0001"
                 stroke-miterlimit="22.9256"
                 d="m 660.792,184.062 c -7.615,24.316 -19.239,41.686 -34.872,52.107 -26.899,18.305 -55.67,27.39 -86.578,27.39 -26.142,-0.847 -47.208,-5.077 -63.196,-12.426 -21.6,-9.264 -38.211,-23.024 -49.568,-41.151 -5.879,-9.353 -10.154,-18.349 -12.826,-26.988"
                 id="path1634"
                 style="font-variation-settings:normal;fill:none;fill-opacity:1;stroke:#000000;stroke-width:2;stroke-linecap:round;stroke-linejoin:miter;stroke-miterlimit:4;stroke-dasharray:none;stroke-dashoffset:0;stroke-opacity:1;stop-color:#000000;stop-opacity:1" />
              <path
                 fill="none"
                 stroke="#000000"
                 stroke-width="1.0001"
                 stroke-miterlimit="22.9256"
                 d="m 431.788,228.554 c 15.81,20.263 31.531,33.49 47.163,39.681 20.844,9.62 41.285,13.896 60.926,12.826 22.224,-0.044 41.151,-4.319 56.783,-12.692 22.134,-10.377 39.325,-25.519 51.706,-45.293"
                 id="path1636"
                 style="font-variation-settings:normal;fill:none;fill-opacity:1;stroke:#000000;stroke-width:2;stroke-linecap:round;stroke-linejoin:miter;stroke-miterlimit:4;stroke-dasharray:none;stroke-dashoffset:0;stroke-opacity:1;stop-color:#000000;stop-opacity:1" />
              <path
                 fill="none"
                 stroke="#000000"
                 stroke-width="1.0001"
                 stroke-miterlimit="22.9256"
                 d="M 537.328,68.088 C 510.519,55.266 488.373,52.546 470.889,59.929"
                 id="path1638"
                 style="font-variation-settings:normal;fill:none;fill-opacity:1;stroke:#000000;stroke-width:2;stroke-linecap:round;stroke-linejoin:miter;stroke-miterlimit:4;stroke-dasharray:none;stroke-dashoffset:0;stroke-opacity:1;stop-color:#000000;stop-opacity:1" />
            </g>
          </g>
        </g>
      </g>
    </g>
    <rect
       style="fill:#ffffff;stroke:none;stroke-width:2.89134;stop-color:#000000"
       id="rect2220"
       width="659.57037"
       height="99.367851"
       x="-144.31305"
       y="-154.97301"
       rx="10.76873"
       ry="10.76873"
       inkscape:export-filename="/home/rlafuente/nextcloud/Manufactura WIP/ciberlandia/logos/logo-site.png"
       inkscape:export-xdpi="49.189999"
       inkscape:export-ydpi="49.189999" />
    <rect
       style="fill:#ffffff;stroke:none;stroke-width:2.89134;stop-color:#000000"
       id="rect2778"
       width="51.138432"
       height="29.224268"
       x="223.70825"
       y="-169.04053"
       rx="5.8864012"
       ry="5.8864012"
       inkscape:export-filename="/home/rlafuente/nextcloud/Manufactura WIP/ciberlandia/logos/logo-site.png"
       inkscape:export-xdpi="49.189999"
       inkscape:export-ydpi="49.189999" />
    <g
       id="g1202"
       transform="matrix(3.7759969,0,0,3.7759969,-225.28872,-704.0062)"
       inkscape:export-filename="/home/rlafuente/nextcloud/Manufactura WIP/ciberlandia/logos/logo-site.png"
       inkscape:export-xdpi="49.189999"
       inkscape:export-ydpi="49.189999">
      <g
         id="g1198"
         style="stroke:#000000"
         transform="matrix(1.2776024,0,0,1.2776024,-40.705495,-90.290866)">
        <path
           style="font-variation-settings:normal;vector-effect:none;fill:none;fill-opacity:1;stroke:#000000;stroke-width:0.415445;stroke-linecap:round;stroke-linejoin:miter;stroke-miterlimit:4;stroke-dasharray:none;stroke-dashoffset:0;stroke-opacity:1;-inkscape-stroke:none;stop-color:#000000"
           d="m 181.98481,187.62152 h -10.88634 m -6.59518,0 h 4.29114 m -6.48565,0 H 151.1227 c -0.54961,0 -0.54961,0.54959 0,0.54959 h 11.20373 c 0.54959,0 0.61264,0.54959 0.0631,0.54959 h -11.26678 c -0.5496,0 -0.5496,0.54959 0,0.54959 h 11.26678 c 0.5496,0 0.5496,0.5496 0,0.5496 h -4.82815 c -0.5496,0 -0.39305,0.54959 0.15654,0.54959 h 4.67159 c 0.5496,0 0.5496,0.54963 0,0.54963 h -4.67159 c -0.5496,0 -0.5496,0.54959 0,0.54959 h 4.67159 c 0.5496,0 0.5496,0.54959 0,0.54959 h -4.67159 c -0.5496,0 -0.5496,0.5496 0,0.5496 h 4.67159 c 0.5496,0 0.5496,0.54959 0,0.54959 h -4.67159 c -0.5496,0 -0.5496,0.54959 0,0.54959 h 4.67159 c 0.5496,0 0.5496,0.54963 0,0.54963 h -4.67159 c -0.5496,0 -0.5496,0.5496 0,0.5496 h 4.67159 c 0.5496,0 0.5496,0.54959 0,0.54959 h -4.67159 c -0.5496,0 -0.5496,0.54959 0,0.54959 h 4.67159 c 0.5496,0 0.5496,0.54959 0,0.54959 h -4.67159 c -0.5496,0 -0.5496,0.54959 0,0.54959 h 4.67159 c 0.5496,0 0.5496,0.54964 0,0.54964 h -4.67159 c -0.5496,0 -0.5496,0.54959 0,0.54959 h 4.67159 c 0.5496,0 0.5496,0.54959 0,0.54959 h -4.67159 c -0.5496,0 -0.5496,0.54959 0,0.54959 h 4.67159 c 0.5496,0 0.5496,0.5496 0,0.5496 h -4.67159 c -0.5496,0 -0.5496,0.54959 0,0.54959 h 4.67159 c 0.5496,0 0.5496,0.54963 0,0.54963 h -11.26678 c -0.54959,0 -0.54959,-0.54963 0,-0.54963 h 4.6716 c 0.54959,0 0.54959,-0.54959 0,-0.54959 h -4.6716 c -0.54959,0 -0.54959,-0.5496 0,-0.5496 h 4.6716 c 0.54959,0 0.54959,-0.54959 0,-0.54959 h -4.6716 c -0.54959,0 -0.54959,-0.54959 0,-0.54959 h 4.6716 c 0.54959,0 0.54959,-0.54959 0,-0.54959 h -4.6716 c -0.54959,0 -0.54959,-0.54964 0,-0.54964 h 4.6716 c 0.54959,0 0.54959,-0.54959 0,-0.54959 h -4.6716 c -0.54959,0 -0.54959,-0.54959 0,-0.54959 h 4.6716 c 0.54959,0 0.54959,-0.54959 0,-0.54959 h -4.6716 c -0.54959,0 -0.54959,-0.54959 0,-0.54959 h 4.6716 c 0.54959,0 0.54959,-0.5496 0,-0.5496 h -4.6716 c -0.54959,0 -0.54959,-0.54963 0,-0.54963 h 4.6716 c 0.54959,0 0.54959,-0.54959 0,-0.54959 h -4.6716 c -0.54959,0 -0.54959,-0.54959 0,-0.54959 h 4.6716 c 0.54959,0 0.54959,-0.5496 0,-0.5496 h -4.6716 c -0.54959,0 -0.54959,-0.54959 0,-0.54959 h 4.6716 c 0.54959,0 0.54959,-0.54959 0,-0.54959 h -4.6716 c -0.54959,0 -0.54959,-0.54963 0,-0.54963 h 4.6716 c 0.54959,0 0.54959,-0.54959 0,-0.54959 h -5.08379 m -12.58796,-2.19837 h 10.88633 m -13.19037,0 h -10.88633 m -13.19038,0 h 4.29114 m -6.59518,0 H 98.55146 m -13.189009,0 h 10.882816 m -13.188232,0 H 72.170709 m -6.595196,0 h 4.291147 m -6.595188,0 H 52.38515 m 130.12506,0.54959 h -11.52485 c -0.5496,0 -0.62666,0.54959 -0.0771,0.54959 h 11.26677 c 0.5496,0 0.5496,0.54959 0,0.54959 h -11.26676 c -0.5496,0 -0.5496,0.5496 0,0.5496 h 4.82844 c 0.5496,0 0.39276,0.54959 -0.15683,0.54959 h -4.67161 c -0.5496,0 -0.5496,0.54963 0,0.54963 h 4.67159 c 0.5496,0 0.5496,0.54959 0,0.54959 h -4.67159 c -0.5496,0 -0.5496,0.54959 0,0.54959 h 4.67159 c 0.5496,0 0.5496,0.5496 0,0.5496 h -4.67159 c -0.5496,0 -0.5496,0.54959 0,0.54959 h 4.67159 c 0.5496,0 0.5496,0.54959 0,0.54959 h -4.67159 c -0.5496,0 -0.5496,0.54963 0,0.54963 h 4.67159 c 0.5496,0 0.5496,0.5496 0,0.5496 h -4.67159 c -0.5496,0 -0.5496,0.54959 0,0.54959 h 4.67159 c 0.5496,0 0.5496,0.54959 0,0.54959 h -4.67159 c -0.5496,0 -0.5496,0.54959 0,0.54959 h 11.26678 c 0.5496,0 0.5496,-0.54959 0,-0.54959 h -4.67159 c -0.5496,0 -0.5496,-0.54959 0,-0.54959 h 4.67159 c 0.5496,0 0.5496,-0.54959 0,-0.54959 h -4.67159 c -0.5496,0 -0.5496,-0.5496 0,-0.5496 h 4.67159 c 0.5496,0 0.5496,-0.54963 0,-0.54963 h -4.67159 c -0.5496,0 -0.5496,-0.54959 0,-0.54959 h 4.67159 c 0.5496,0 0.5496,-0.54959 0,-0.54959 h -4.67159 c -0.5496,0 -0.5496,-0.5496 0,-0.5496 h 4.67159 c 0.5496,0 0.5496,-0.54959 0,-0.54959 h -4.67159 c -0.5496,0 -0.5496,-0.54959 0,-0.54959 h 4.67159 c 0.5496,0 0.5496,-0.54963 0,-0.54963 h -4.67159 c -0.5496,0 -0.70489,-0.54959 -0.15529,-0.54959 h 5.23908 m -13.26744,-1.64878 h -4.92966 c -0.5496,0 -0.62667,0.54959 -0.0771,0.54959 h 4.6716 c 0.5496,0 0.5496,0.54959 0,0.54959 h -4.6716 c -0.5496,0 -0.5496,0.5496 0,0.5496 h 4.6716 c 0.5496,0 0.5496,0.54959 0,0.54959 h -4.6716 c -0.5496,0 -0.5496,0.54963 0,0.54963 h 4.6716 c 0.5496,0 0.5496,0.54959 0,0.54959 h -4.6716 c -0.5496,0 -0.5496,0.54959 0,0.54959 h 4.6716 c 0.5496,0 0.5496,0.5496 0,0.5496 h -4.6716 c -0.5496,0 -0.5496,0.54959 0,0.54959 h 4.6716 c 0.5496,0 0.5496,0.54959 0,0.54959 h -4.6716 c -0.5496,0 -0.5496,0.54963 0,0.54963 h 4.6716 c 0.5496,0 0.5496,0.5496 0,0.5496 h -4.6716 c -0.5496,0 -0.5496,0.54959 0,0.54959 h 4.6716 c 0.5496,0 0.5496,0.54959 0,0.54959 h -4.6716 c -0.5496,0 -0.5496,0.54959 0,0.54959 h 4.6716 c 0.5496,0 0.5496,0.54959 0,0.54959 h -4.6716 c -0.5496,0 -0.5496,0.54964 0,0.54964 h 4.6716 c 0.5496,0 0.5496,0.54959 0,0.54959 h -4.6716 c -0.5496,0 -0.5496,0.54959 0,0.54959 h 4.6716 c 0.5496,0 0.5496,0.54959 0,0.54959 h -4.6716 c -0.5496,0 -0.5496,0.5496 0,0.5496 h 4.6716 c 0.5496,0 0.5496,0.54959 0,0.54959 h -4.6716 c -0.5496,0 -0.5496,0.54963 0,0.54963 h 4.6716 c 0.5496,0 0.5496,0.54959 0,0.54959 h -4.6716 c -0.5496,0 -0.54596,0.5496 0.003,0.5496 h 4.66432 c 0.5496,0 0.37211,0.54959 -0.17748,0.54959 h -4.72154 m -14.54776,-14.28956 h -11.52485 c -0.5496,0 -0.62666,0.54959 -0.0771,0.54959 h 4.82867 c 0.5496,0 0.39252,0.54959 -0.15708,0.54959 h -4.67159 c -0.5496,0 -0.5496,0.5496 0,0.5496 h 4.67159 c 0.5496,0 0.5496,0.54959 0,0.54959 h -4.67159 c -0.5496,0 -0.5496,0.54963 0,0.54963 h 4.67159 c 0.5496,0 0.5496,0.54959 0,0.54959 h -4.67159 c -0.5496,0 -0.5496,0.54959 0,0.54959 h 4.67159 c 0.5496,0 0.5496,0.5496 0,0.5496 h -4.67159 c -0.5496,0 -0.5496,0.54959 0,0.54959 h 4.67159 c 0.5496,0 0.5496,0.54959 0,0.54959 h -4.67159 c -0.5496,0 -0.5496,0.54963 0,0.54963 h 4.67159 c 0.5496,0 0.5496,0.5496 0,0.5496 h -4.67159 c -0.5496,0 -0.5496,0.54959 0,0.54959 h 4.67159 c 0.5496,0 0.5496,0.54959 0,0.54959 h -4.67159 c -0.5496,0 -0.5496,0.54959 0,0.54959 h 4.67159 c 0.5496,0 0.5496,0.54959 0,0.54959 h -4.67159 c -0.5496,0 -0.5496,0.54964 0,0.54964 h 4.67159 c 0.5496,0 0.5496,0.54959 0,0.54959 h -4.67159 c -0.5496,0 -0.5496,0.54959 0,0.54959 h 4.67159 c 0.5496,0 0.5496,0.54959 0,0.54959 h -4.67159 c -0.5496,0 -0.5496,0.5496 0,0.5496 h 4.67159 c 0.5496,0 0.5496,0.54959 0,0.54959 h -4.67159 c -0.5496,0 -0.5496,0.54963 0,0.54963 h 4.67159 c 0.5496,0 0.5496,0.54959 0,0.54959 h -4.67159 c -0.5496,0 -0.54574,0.5496 0.005,0.5496 h 4.66388 c 0.54959,0 0.37111,0.54959 -0.17848,0.54959 h -4.71913 m -1.35859,-14.28956 h -11.52485 c -0.5496,0 -0.62666,0.54959 -0.0771,0.54959 h 11.26678 c 0.5496,0 0.5496,0.54959 0,0.54959 h -11.26678 c -0.5496,0 -0.5496,0.5496 0,0.5496 h 4.82843 c 0.5496,0 0.39276,0.54959 -0.15683,0.54959 h -4.67159 c -0.5496,0 -0.5496,0.54963 0,0.54963 h 4.67159 c 0.5496,0 0.5496,0.54959 0,0.54959 h -4.67159 c -0.5496,0 -0.5496,0.54959 0,0.54959 h 4.67159 c 0.5496,0 0.5496,0.5496 0,0.5496 h -4.67159 c -0.5496,0 -0.5496,0.54959 0,0.54959 h 4.67159 c 0.5496,0 0.5496,0.54959 0,0.54959 h -4.67159 c -0.5496,0 -0.5496,0.54963 0,0.54963 h 4.67159 c 0.5496,0 0.5496,0.5496 0,0.5496 h -4.67159 c -0.5496,0 -0.5496,0.54959 0,0.54959 h 4.67159 c 0.5496,0 0.5496,0.54959 0,0.54959 h -4.67159 c -0.5496,0 -0.5496,0.54959 0,0.54959 h 11.26678 c 0.5496,0 0.5496,-0.54959 0,-0.54959 h -4.67159 c -0.5496,0 -0.5496,-0.54959 0,-0.54959 h 4.67159 c 0.5496,0 0.5496,-0.54959 0,-0.54959 h -4.67159 c -0.5496,0 -0.5496,-0.5496 0,-0.5496 h 4.67159 c 0.5496,0 0.5496,-0.54963 0,-0.54963 h -4.67159 c -0.5496,0 -0.5496,-0.54959 0,-0.54959 h 4.67159 c 0.5496,0 0.5496,-0.54959 0,-0.54959 h -4.67159 c -0.5496,0 -0.5496,-0.5496 0,-0.5496 h 4.67159 c 0.5496,0 0.5496,-0.54959 0,-0.54959 h -4.67159 c -0.5496,0 -0.5496,-0.54959 0,-0.54959 h 4.67159 c 0.5496,0 0.5496,-0.54963 0,-0.54963 h -4.67159 c -0.5496,0 -0.70616,-0.54959 -0.15658,-0.54959 h 5.24035 m -19.86263,-1.64878 h -4.92966 c -0.5496,0 -0.62666,0.54959 -0.0771,0.54959 h 4.67159 c 0.5496,0 0.5496,0.54959 0,0.54959 h -4.67159 c -0.5496,0 -0.5496,0.5496 0,0.5496 h 4.67159 c 0.5496,0 0.5496,0.54959 0,0.54959 h -4.67159 c -0.5496,0 -0.5496,0.54963 0,0.54963 h 4.67159 c 0.5496,0 0.5496,0.54959 0,0.54959 h -4.67159 c -0.5496,0 -0.5496,0.54959 0,0.54959 h 4.67159 c 0.5496,0 0.5496,0.5496 0,0.5496 h -4.67159 c -0.5496,0 -0.5496,0.54959 0,0.54959 h 4.67159 c 0.5496,0 0.5496,0.54959 0,0.54959 h -4.67159 c -0.5496,0 -0.5496,0.54963 0,0.54963 h 4.67159 c 0.5496,0 0.5496,0.5496 0,0.5496 h -4.67159 c -0.5496,0 -0.5496,0.54959 0,0.54959 h 4.67159 c 0.5496,0 0.5496,0.54959 0,0.54959 h -4.67159 c -0.5496,0 -0.5496,0.54959 0,0.54959 h 4.67159 c 0.5496,0 0.5496,0.54959 0,0.54959 h -4.67159 c -0.5496,0 -0.5496,0.54964 0,0.54964 h 4.67159 c 0.5496,0 0.5496,0.54959 0,0.54959 h -4.67159 c -0.5496,0 -0.5496,0.54959 0,0.54959 h 4.67159 c 0.5496,0 0.5496,0.54959 0,0.54959 h -4.67159 c -0.5496,0 -0.5496,0.5496 0,0.5496 h 11.07441 M 109.96354,188.17111 H 98.438695 c -0.549596,0 -0.626661,0.54959 -0.07706,0.54959 h 11.266775 c 0.5496,0 0.5496,0.54959 0,0.54959 H 98.36163 c -0.5496,0 -0.5496,0.5496 0,0.5496 h 4.82844 c 0.54959,0 0.39276,0.54959 -0.15683,0.54959 h -4.671593 c -0.5496,0 -0.5496,0.54963 0,0.54963 h 4.671593 c 0.5496,0 0.5496,0.54959 0,0.54959 h -4.671593 c -0.5496,0 -0.5496,0.54959 0,0.54959 h 4.671593 c 0.5496,0 0.5496,0.5496 0,0.5496 h -4.671593 c -0.5496,0 -0.5496,0.54959 0,0.54959 h 4.671593 c 0.5496,0 0.5496,0.54959 0,0.54959 h -4.671593 c -0.5496,0 -0.5496,0.54963 0,0.54963 h 4.671593 c 0.5496,0 0.5496,0.5496 0,0.5496 h -4.671593 c -0.5496,0 -0.5496,0.54959 0,0.54959 h 4.671593 c 0.5496,0 0.5496,0.54959 0,0.54959 h -4.671593 c -0.5496,0 -0.5496,0.54959 0,0.54959 h 7.026633 c 0.5496,0 0.39297,0.54959 -0.15666,0.54959 h -6.86999 c -0.5496,0 -0.5496,0.54964 0,0.54964 h 4.82848 c 0.5496,0 0.39272,0.54959 -0.15687,0.54959 h -4.671593 c -0.5496,0 -0.5496,0.54959 0,0.54959 h 4.671593 c 0.5496,0 0.5496,0.54959 0,0.54959 h -4.671593 c -0.5496,0 -0.5496,0.5496 0,0.5496 h 4.671593 c 0.5496,0 0.5496,0.54959 0,0.54959 h -4.671593 c -0.5496,0 -0.5496,0.54963 0,0.54963 h 4.671593 c 0.5496,0 0.5496,0.54959 0,0.54959 h -4.671593 c -0.5496,0 -0.545741,0.5496 0.0046,0.5496 h 4.663873 c 0.5496,0 0.37112,0.54959 -0.17847,0.54959 h -4.719124 m -13.2925,-14.28956 h 11.519547 c 0.549601,0 0.626666,0.54959 0.07707,0.54959 H 85.171147 c -0.5496,0 -0.5496,0.54959 0,0.54959 h 11.264626 c 0.549597,0 0.545741,0.5496 -0.0046,0.5496 H 85.170977 c -0.549601,0 -0.549601,0.54959 0,0.54959 h 11.494488 m -13.08295,-2.19837 H 72.057667 c -0.549601,0 -0.626666,0.54959 -0.07706,0.54959 H 83.24738 c 0.5496,0 0.5496,0.54959 0,0.54959 H 71.980456 c -0.5496,0 -0.5496,0.5496 0,0.5496 h 4.828434 c 0.5496,0 0.392761,0.54959 -0.156831,0.54959 h -4.671603 c -0.5496,0 -0.5496,0.54963 0,0.54963 h 4.671591 c 0.5496,0 0.5496,0.54959 0,0.54959 h -4.671591 c -0.5496,0 -0.5496,0.54959 0,0.54959 h 4.671591 c 0.5496,0 0.5496,0.5496 0,0.5496 h -4.671591 c -0.5496,0 -0.5496,0.54959 0,0.54959 h 7.026631 c 0.549601,0 0.39297,0.54959 -0.156664,0.54959 h -6.869967 c -0.5496,0 -0.5496,0.54963 0,0.54963 h 4.828459 c 0.549596,0 0.39272,0.5496 -0.156872,0.5496 h -4.671587 c -0.5496,0 -0.5496,0.54959 0,0.54959 h 4.671591 c 0.5496,0 0.5496,0.54959 0,0.54959 h -4.671591 c -0.5496,0 -0.5496,0.54959 0,0.54959 h 4.671591 c 0.5496,0 0.5496,0.54959 0,0.54959 h -4.671591 c -0.5496,0 -0.5496,0.54964 0,0.54964 h 4.671591 c 0.5496,0 0.5496,0.54959 0,0.54959 h -4.671591 c -0.5496,0 -0.5496,0.54959 0,0.54959 h 4.671591 c 0.5496,0 0.5496,0.54959 0,0.54959 h -4.671591 c -0.5496,0 -0.5496,0.5496 0,0.5496 h 4.671591 c 0.5496,0 0.5496,0.54959 0,0.54959 h -4.671591 c -0.5496,0 -0.5496,0.54963 0,0.54963 h 11.266778 c 0.549601,0 0.549601,-0.54963 0,-0.54963 h -4.67159 c -0.549601,0 -0.549601,-0.54959 0,-0.54959 h 4.67159 c 0.549601,0 0.549601,-0.5496 0,-0.5496 h -4.67159 c -0.549601,0 -0.549601,-0.54959 0,-0.54959 h 4.67159 c 0.549601,0 0.549601,-0.54959 0,-0.54959 h -4.67159 c -0.549601,0 -0.549601,-0.54959 0,-0.54959 h 4.67159 c 0.549601,0 0.549601,-0.54964 0,-0.54964 h -4.67159 c -0.549601,0 -0.549601,-0.54959 0,-0.54959 h 4.67159 c 0.549601,0 0.549601,-0.54959 0,-0.54959 h -4.67159 c -0.549601,0 -0.549601,-0.54959 0,-0.54959 h 4.67159 c 0.549601,0 0.472536,-0.54959 -0.07707,-0.54959 H 78.57564 c -0.549597,0 -0.706331,-0.5496 -0.156748,-0.5496 h 4.638102 m -12.665016,-6.04559 h -4.929661 c -0.549596,0 -0.626661,0.54959 -0.07707,0.54959 h 4.67159 c 0.549601,0 0.549601,0.54959 0,0.54959 h -4.67159 c -0.5496,0 -0.5496,0.5496 0,0.5496 h 4.67159 c 0.549601,0 0.549601,0.54959 0,0.54959 h -4.67159 c -0.5496,0 -0.5496,0.54963 0,0.54963 h 4.67159 c 0.549601,0 0.549601,0.54959 0,0.54959 h -4.67159 c -0.5496,0 -0.5496,0.54959 0,0.54959 h 4.67159 c 0.549601,0 0.549601,0.5496 0,0.5496 h -4.67159 c -0.5496,0 -0.5496,0.54959 0,0.54959 h 4.67159 c 0.549601,0 0.549601,0.54959 0,0.54959 h -4.67159 c -0.5496,0 -0.5496,0.54963 0,0.54963 h 4.67159 c 0.549601,0 0.549601,0.5496 0,0.5496 h -4.67159 c -0.5496,0 -0.5496,0.54959 0,0.54959 h 4.67159 c 0.549601,0 0.549601,0.54959 0,0.54959 h -4.67159 c -0.5496,0 -0.5496,0.54959 0,0.54959 h 4.67159 c 0.549601,0 0.549601,0.54959 0,0.54959 h -4.67159 c -0.5496,0 -0.5496,0.54964 0,0.54964 h 4.67159 c 0.549601,0 0.549601,0.54959 0,0.54959 h -4.67159 c -0.5496,0 -0.5496,0.54959 0,0.54959 h 4.67159 c 0.549601,0 0.549601,0.54959 0,0.54959 h -4.67159 c -0.5496,0 -0.5496,0.5496 0,0.5496 h 4.67159 c 0.549601,0 0.549601,0.54959 0,0.54959 h -4.67159 c -0.5496,0 -0.5496,0.54963 0,0.54963 h 4.67159 c 0.549601,0 0.549601,0.54959 0,0.54959 h -4.67159 c -0.5496,0 -0.545961,0.5496 0.0033,0.5496 h 4.664312 c 0.5496,0 0.372113,0.54959 -0.177479,0.54959 H 65.153853 M 63.796466,188.17111 H 52.271618 c -0.549601,0 -0.626666,0.54959 -0.07706,0.54959 h 11.266778 c 0.5496,0 0.5496,0.54959 0,0.54959 H 52.194553 c -0.549601,0 -0.549601,0.5496 0,0.5496 h 4.828238 c 0.549596,0 0.392969,0.54959 -0.156664,0.54959 h -4.671591 c -0.5496,0 -0.5496,0.54963 0,0.54963 h 4.671591 c 0.5496,0 0.5496,0.54959 0,0.54959 h -4.671591 c -0.5496,0 -0.5496,0.54959 0,0.54959 h 4.671591 c 0.5496,0 0.5496,0.5496 0,0.5496 h -4.671591 c -0.5496,0 -0.5496,0.54959 0,0.54959 h 4.671591 c 0.5496,0 0.5496,0.54959 0,0.54959 h -4.671591 c -0.5496,0 -0.5496,0.54963 0,0.54963 h 4.671591 c 0.5496,0 0.5496,0.5496 0,0.5496 h -4.671591 c -0.5496,0 -0.5496,0.54959 0,0.54959 h 4.671591 c 0.5496,0 0.5496,0.54959 0,0.54959 h -4.671591 c -0.5496,0 -0.5496,0.54959 0,0.54959 h 4.671591 c 0.5496,0 0.5496,0.54959 0,0.54959 h -4.671591 c -0.5496,0 -0.5496,0.54964 0,0.54964 h 4.671591 c 0.5496,0 0.5496,0.54959 0,0.54959 h -4.671591 c -0.5496,0 -0.5496,0.54959 0,0.54959 h 4.671591 c 0.5496,0 0.5496,0.54959 0,0.54959 h -4.671591 c -0.5496,0 -0.5496,0.5496 0,0.5496 h 4.671591 c 0.5496,0 0.5496,0.54959 0,0.54959 h -4.671591 c -0.5496,0 -0.5496,0.54963 0,0.54963 h 11.266778 c 0.549601,0 0.549601,-0.54963 0,-0.54963 h -4.67159 c -0.549601,0 -0.549601,-0.54959 0,-0.54959 h 4.67159 c 0.549601,0 0.549601,-0.5496 0,-0.5496 h -4.67159 c -0.549601,0 -0.549601,-0.54959 0,-0.54959 h 4.67159 c 0.549601,0 0.549601,-0.54959 0,-0.54959 h -4.67159 c -0.549601,0 -0.549601,-0.54959 0,-0.54959 h 4.67159 c 0.549601,0 0.549601,-0.54964 0,-0.54964 h -4.67159 c -0.549601,0 -0.549601,-0.54959 0,-0.54959 h 5.08379 M 143.9584,188.7207 h 5.24035 c 0.5496,0 0.5496,0.54959 0,0.54959 h -4.67159 c -0.5496,0 -0.5496,0.5496 0,0.5496 h 4.67159 c 0.5496,0 0.5496,0.54959 0,0.54959 h -4.67159 c -0.5496,0 -0.5496,0.54963 0,0.54963 h 4.67159 c 0.5496,0 0.5496,0.54959 0,0.54959 h -4.67159 c -0.5496,0 -0.5496,0.54959 0,0.54959 h 4.67159 c 0.5496,0 0.5496,0.5496 0,0.5496 h -4.67159 c -0.5496,0 -0.5496,0.54959 0,0.54959 h 4.67159 c 0.5496,0 0.5496,0.54959 0,0.54959 h -4.67159 c -0.5496,0 -0.5496,0.54963 0,0.54963 h 4.67159 c 0.5496,0 0.5496,0.5496 0,0.5496 h -4.67159 c -0.5496,0 -0.5496,0.54959 0,0.54959 h 4.67159 c 0.5496,0 0.5496,0.54959 0,0.54959 h -4.67159 c -0.5496,0 -0.5496,0.54959 0,0.54959 h 4.67159 c 0.5496,0 0.5496,0.54959 0,0.54959 h -4.67159 c -0.5496,0 -0.5496,0.54964 0,0.54964 h 4.67159 c 0.5496,0 0.5496,0.54959 0,0.54959 h -4.67159 c -0.5496,0 -0.5496,0.54959 0,0.54959 h 4.67159 c 0.5496,0 0.5496,0.54959 0,0.54959 h -4.67159 c -0.5496,0 -0.5496,0.5496 0,0.5496 h 4.67159 c 0.5496,0 0.5496,0.54959 0,0.54959 h -4.67159 c -0.5496,0 -0.5496,0.54963 0,0.54963 h 4.67159 c 0.5496,0 0.5496,0.54959 0,0.54959 h -4.67159 c -0.5496,0 -0.54574,0.5496 0.005,0.5496 h 4.66387 c 0.5496,0 0.37112,0.54959 -0.17847,0.54959 h -4.71912 m -39.91002,-12.64078 h 5.24035 c 0.5496,0 0.5496,0.54959 0,0.54959 h -4.67159 c -0.5496,0 -0.5496,0.54963 0,0.54963 h 4.67159 c 0.5496,0 0.5496,0.54959 0,0.54959 h -4.67159 c -0.5496,0 -0.5496,0.54959 0,0.54959 h 4.67159 c 0.5496,0 0.5496,0.5496 0,0.5496 h -4.67159 c -0.5496,0 -0.5496,0.54959 0,0.54959 h 4.67159 c 0.5496,0 0.5496,0.54959 0,0.54959 h -4.67159 c -0.5496,0 -0.5496,0.54963 0,0.54963 h 4.67159 c 0.5496,0 0.5496,0.5496 0,0.5496 h -4.67159 c -0.5496,0 -0.5496,0.54959 0,0.54959 h 4.66773 c 0.5496,0 0.37112,0.54959 -0.17847,0.54959 h -4.90145 M 78.007253,189.81989 H 83.2476 c 0.5496,0 0.5496,0.54959 0,0.54959 h -4.671591 c -0.549596,0 -0.549596,0.54963 0,0.54963 H 83.2476 c 0.5496,0 0.5496,0.54959 0,0.54959 h -4.671591 c -0.549596,0 -0.549596,0.54959 0,0.54959 h 4.667736 c 0.549596,0 0.371117,0.5496 -0.178517,0.5496 h -4.901431 m -19.942124,-2.748 h 5.240352 c 0.549596,0 0.549596,0.54959 0,0.54959 H 58.79043 c -0.549596,0 -0.549596,0.54963 0,0.54963 h 4.671595 c 0.549596,0 0.549596,0.54959 0,0.54959 H 58.79043 c -0.549596,0 -0.549596,0.54959 0,0.54959 h 4.671595 c 0.549596,0 0.549596,0.5496 0,0.5496 H 58.79043 c -0.549596,0 -0.549596,0.54959 0,0.54959 h 4.671595 c 0.549596,0 0.549596,0.54959 0,0.54959 h -5.083791 m 26.38075,-2.74796 h 5.083787 c 0.5496,0 0.5496,0.54959 0,0.54959 H 85.17118 c -0.549596,0 -0.549596,0.54959 0,0.54959 h 4.671591 c 0.5496,0 0.5496,0.5496 0,0.5496 H 85.17118 c -0.549596,0 -0.549596,0.54959 0,0.54959 h 4.671591 c 0.5496,0 0.5496,0.54959 0,0.54959 H 85.17118 c -0.549596,0 -0.549596,0.54963 0,0.54963 h 11.074411 m 0.525351,0.5496 H 85.170939 c -0.5496,0 -0.5496,0.54959 0,0.54959 h 11.264627 c 0.549596,0 0.549596,0.54959 0,0.54959 H 85.170939 c -0.5496,0 -0.5496,0.54959 0,0.54959 h 11.260767 c 0.5496,0 0.371117,0.54959 -0.178475,0.54959 H 85.170939 c -0.5496,0 -0.5496,0.54964 0,0.54964 h 4.671591 c 0.5496,0 0.5496,0.54959 0,0.54959 h -4.671591 c -0.5496,0 -0.5496,0.54959 0,0.54959 h 4.671591 c 0.5496,0 0.5496,0.54959 0,0.54959 h -4.671591 c -0.5496,0 -0.5496,0.5496 0,0.5496 h 11.074386 m 86.342035,-2.74801 h -11.67898 c -0.5496,0 -0.5496,0.54964 0,0.54964 h 4.82846 c 0.54959,0 0.39272,0.54959 -0.15687,0.54959 h -4.6716 c -0.5496,0 -0.5496,0.54959 0,0.54959 h 4.6716 c 0.5496,0 0.5496,0.54959 0,0.54959 h -4.6716 c -0.5496,0 -0.5496,0.5496 0,0.5496 h 4.6716 c 0.5496,0 0.5496,0.54959 0,0.54959 h -4.6716 c -0.5496,0 -0.5496,0.54963 0,0.54963 h 4.6716 c 0.5496,0 0.5496,0.54959 0,0.54959 h -4.6716 c -0.5496,0 -0.54574,0.5496 0.005,0.5496 h 4.66388 c 0.5496,0 0.37112,0.54959 -0.17848,0.54959 h -4.71913 m -34.25746,-5.49601 h -11.67897 c -0.5496,0 -0.5496,0.54964 0,0.54964 h 4.82846 c 0.5496,0 0.39272,0.54959 -0.15687,0.54959 h -4.67159 c -0.5496,0 -0.5496,0.54959 0,0.54959 h 4.67159 c 0.5496,0 0.5496,0.54959 0,0.54959 h -4.67159 c -0.5496,0 -0.5496,0.5496 0,0.5496 h 4.67159 c 0.5496,0 0.5496,0.54959 0,0.54959 h -4.67159 c -0.5496,0 -0.5496,0.54963 0,0.54963 h 4.67159 c 0.5496,0 0.5496,0.54959 0,0.54959 h -4.67159 c -0.5496,0 -0.54574,0.5496 0.005,0.5496 h 4.66388 c 0.54959,0 0.37111,0.54959 -0.17848,0.54959 h -4.71959 m 52.42243,-4.94637 h 5.24052 c 0.5496,0 0.5496,0.54959 0,0.54959 h -4.67159 c -0.5496,0 -0.5496,0.54959 0,0.54959 h 4.67159 c 0.5496,0 0.5496,0.54959 0,0.54959 h -4.67159 c -0.5496,0 -0.5496,0.5496 0,0.5496 h 4.67159 c 0.5496,0 0.5496,0.54959 0,0.54959 h -4.67159 c -0.5496,0 -0.5496,0.54963 0,0.54963 h 4.67159 c 0.5496,0 0.5496,0.54959 0,0.54959 h -4.67159 c -0.5496,0 -0.54574,0.5496 0.005,0.5496 h 4.66388 c 0.5496,0 0.37111,0.54959 -0.17848,0.54959 h -4.71912 M 130.7711,197.5143 h 5.24053 c 0.5496,0 0.5496,0.54959 0,0.54959 h -4.67159 c -0.5496,0 -0.5496,0.54959 0,0.54959 h 4.67159 c 0.5496,0 0.5496,0.54959 0,0.54959 h -4.67159 c -0.5496,0 -0.5496,0.5496 0,0.5496 h 4.67159 c 0.5496,0 0.5496,0.54959 0,0.54959 h -4.67159 c -0.5496,0 -0.5496,0.54963 0,0.54963 h 4.67159 c 0.5496,0 0.5496,0.54959 0,0.54959 h -4.67159 c -0.5496,0 -0.54574,0.5496 0.005,0.5496 h 4.66387 c 0.5496,0 0.37112,0.54959 -0.17847,0.54959 h -4.71911 m -21.66954,-4.94637 h -4.63809 c -0.5496,0 -0.39289,0.54959 0.15674,0.54959 h 4.59453 c 0.5496,0 0.62666,0.54959 0.0771,0.54959 h -4.6716 c -0.5496,0 -0.5496,0.54959 0,0.54959 h 4.6716 c 0.5496,0 0.5496,0.5496 0,0.5496 h -4.6716 c -0.5496,0 -0.5496,0.54959 0,0.54959 h 4.6716 c 0.5496,0 0.5496,0.54963 0,0.54963 h -4.6716 c -0.5496,0 -0.5496,0.54959 0,0.54959 h 4.6716 c 0.5496,0 0.54574,0.5496 -0.005,0.5496 h -4.66388 c -0.5496,0 -0.37112,0.54959 0.17848,0.54959 h 4.7191 m 13.2935,-2.19841 H 111.5529 c -0.5496,0 -0.5496,0.54963 0,0.54963 h 11.26463 c 0.54959,0 0.54959,0.54959 0,0.54959 H 111.5529 c -0.5496,0 -0.54574,0.5496 0.005,0.5496 h 11.25691 c 0.5496,0 0.37112,0.54959 -0.17848,0.54959 H 111.32242 M 96.771291,200.26226 H 85.170993 c -0.5496,0 -0.5496,0.54963 0,0.54963 H 96.43562 c 0.549596,0 0.549596,0.54959 0,0.54959 H 85.170993 c -0.5496,0 -0.548059,0.5496 0.0011,0.5496 H 96.43132 c 0.5496,0 0.371117,0.54959 -0.178475,0.54959 H 84.94301 m 77.85883,-1.09919 h -11.67898 c -0.5496,0 -0.5496,0.5496 0,0.5496 h 11.26363 c 0.54959,0 0.40356,0.54959 -0.14603,0.54959 H 150.71065 M 83.65958,201.36148 H 71.980602 c -0.549601,0 -0.545741,0.5496 0.0046,0.5496 h 11.259064 c 0.5496,0 0.371117,0.54959 -0.178475,0.54959 H 71.75145 m -7.876718,-1.09919 H 52.195753 c -0.5496,0 -0.545741,0.5496 0.0046,0.5496 h 11.259064 c 0.5496,0 0.371116,0.54959 -0.178476,0.54959 H 51.966602"
           id="path1194" />
        <path
           style="font-variation-settings:normal;vector-effect:none;fill:none;fill-opacity:1;stroke:#000000;stroke-width:0.415445;stroke-linecap:round;stroke-linejoin:miter;stroke-miterlimit:4;stroke-dasharray:none;stroke-dashoffset:0;stroke-opacity:1;-inkscape-stroke:none;stop-color:#000000"
           d="m 133.1082,184.56416 h -5.0527 c -0.5496,0 -0.56499,0.54959 -0.0154,0.54959 h 4.67177 c 0.5496,0 0.5496,0.5496 0,0.5496 h -1.38991 c -0.5496,0 -0.47637,0.54963 0.0732,0.54963 h 1.66756 m -3.22108,-0.54963 h -1.80156 c -0.5496,0 -0.48879,0.54963 0.0608,0.54963 h 1.66652"
           id="path1196" />
      </g>
      <path
         id="path1200"
         style="font-variation-settings:normal;vector-effect:none;fill:none;fill-opacity:1;stroke:url(#linearGradient1204);stroke-width:0.530774;stroke-linecap:round;stroke-linejoin:miter;stroke-miterlimit:4;stroke-dasharray:none;stroke-dashoffset:0;stroke-opacity:1;-inkscape-stroke:none;stop-color:#000000"
         d="M 129.08334,145.06938 H 122.628 c -0.70218,0 -0.72184,0.70216 -0.0197,0.70216 h 5.96866 c 0.70218,0 0.70218,0.70217 0,0.70217 h -1.77575 c -0.70217,0 -0.60861,0.70221 0.0935,0.70221 h 2.13049 m -4.11527,-0.70221 h -2.30167 c -0.70218,0 -0.62448,0.70221 0.0777,0.70221 h 2.12915 m 66.71311,1.79955 H 177.6198 m -8.42602,0 h 5.48237 m -8.28608,0 H 152.0987 c -0.70217,0 -0.70217,0.70216 0,0.70216 h 14.31392 c 0.70215,0 0.78271,0.70216 0.0806,0.70216 h -14.39447 c -0.70217,0 -0.70217,0.70216 0,0.70216 h 14.39447 c 0.70217,0 0.70217,0.70217 0,0.70217 h -6.16847 c -0.70216,0 -0.50215,0.70215 0.20001,0.70215 h 5.96843 c 0.70217,0 0.70217,0.70222 0,0.70222 h -5.96843 c -0.70218,0 -0.70218,0.70215 0,0.70215 h 5.96843 c 0.70217,0 0.70217,0.70216 0,0.70216 h -5.96843 c -0.70218,0 -0.70218,0.70217 0,0.70217 h 5.96843 c 0.70217,0 0.70217,0.70216 0,0.70216 h -5.96843 c -0.70218,0 -0.70218,0.70216 0,0.70216 h 5.96843 c 0.70217,0 0.70217,0.7022 0,0.7022 h -5.96843 c -0.70218,0 -0.70218,0.70218 0,0.70218 h 5.96843 c 0.70217,0 0.70217,0.70216 0,0.70216 h -5.96843 c -0.70218,0 -0.70218,0.70215 0,0.70215 h 5.96843 c 0.70217,0 0.70217,0.70216 0,0.70216 h -5.96843 c -0.70218,0 -0.70218,0.70216 0,0.70216 h 5.96843 c 0.70217,0 0.70217,0.70222 0,0.70222 h -5.96843 c -0.70218,0 -0.70218,0.70216 0,0.70216 h 5.96843 c 0.70217,0 0.70217,0.70216 0,0.70216 h -5.96843 c -0.70218,0 -0.70218,0.70216 0,0.70216 h 5.96843 c 0.70217,0 0.70217,0.70217 0,0.70217 h -5.96843 c -0.70218,0 -0.70218,0.70215 0,0.70215 h 5.96843 c 0.70217,0 0.70217,0.70221 0,0.70221 h -14.39447 c -0.70216,0 -0.70216,-0.70221 0,-0.70221 h 5.96845 c 0.70216,0 0.70216,-0.70215 0,-0.70215 h -5.96845 c -0.70216,0 -0.70216,-0.70217 0,-0.70217 h 5.96845 c 0.70216,0 0.70216,-0.70216 0,-0.70216 h -5.96845 c -0.70216,0 -0.70216,-0.70216 0,-0.70216 h 5.96845 c 0.70216,0 0.70216,-0.70216 0,-0.70216 h -5.96845 c -0.70216,0 -0.70216,-0.70222 0,-0.70222 h 5.96845 c 0.70216,0 0.70216,-0.70216 0,-0.70216 h -5.96845 c -0.70216,0 -0.70216,-0.70216 0,-0.70216 h 5.96845 c 0.70216,0 0.70216,-0.70215 0,-0.70215 h -5.96845 c -0.70216,0 -0.70216,-0.70216 0,-0.70216 h 5.96845 c 0.70216,0 0.70216,-0.70218 0,-0.70218 h -5.96845 c -0.70216,0 -0.70216,-0.7022 0,-0.7022 h 5.96845 c 0.70216,0 0.70216,-0.70216 0,-0.70216 h -5.96845 c -0.70216,0 -0.70216,-0.70216 0,-0.70216 h 5.96845 c 0.70216,0 0.70216,-0.70217 0,-0.70217 h -5.96845 c -0.70216,0 -0.70216,-0.70216 0,-0.70216 h 5.96845 c 0.70216,0 0.70216,-0.70215 0,-0.70215 h -5.96845 c -0.70216,0 -0.70216,-0.70222 0,-0.70222 h 5.96845 c 0.70216,0 0.70216,-0.70215 0,-0.70215 h -6.49506 m -16.08241,-2.80865 h 13.9084 m -16.85205,0 h -13.9084 m -16.85207,0 h 5.48238 m -8.426022,0 H 84.933555 m -16.85031,0 h 13.903912 m -16.849317,0 H 51.229443 m -8.426038,0 h 5.482379 m -8.426028,0 H 25.951364 m 166.248106,0.70216 h -14.72418 c -0.70218,0 -0.80062,0.70216 -0.0985,0.70216 h 14.39445 c 0.70218,0 0.70218,0.70216 0,0.70216 H 177.3768 c -0.70216,0 -0.70216,0.70217 0,0.70217 h 6.16884 c 0.70216,0 0.50178,0.70215 -0.20037,0.70215 h -5.96847 c -0.70216,0 -0.70216,0.70222 0,0.70222 h 5.96845 c 0.70216,0 0.70216,0.70215 0,0.70215 h -5.96845 c -0.70216,0 -0.70216,0.70216 0,0.70216 h 5.96845 c 0.70216,0 0.70216,0.70217 0,0.70217 h -5.96845 c -0.70216,0 -0.70216,0.70216 0,0.70216 h 5.96845 c 0.70216,0 0.70216,0.70216 0,0.70216 h -5.96845 c -0.70216,0 -0.70216,0.7022 0,0.7022 h 5.96845 c 0.70216,0 0.70216,0.70218 0,0.70218 h -5.96845 c -0.70216,0 -0.70216,0.70216 0,0.70216 h 5.96845 c 0.70216,0 0.70216,0.70215 0,0.70215 h -5.96845 c -0.70216,0 -0.70216,0.70216 0,0.70216 h 14.39447 c 0.70218,0 0.70218,-0.70216 0,-0.70216 h -5.96843 c -0.70218,0 -0.70218,-0.70215 0,-0.70215 h 5.96843 c 0.70218,0 0.70218,-0.70216 0,-0.70216 h -5.96843 c -0.70218,0 -0.70218,-0.70218 0,-0.70218 h 5.96843 c 0.70218,0 0.70218,-0.7022 0,-0.7022 h -5.96843 c -0.70218,0 -0.70218,-0.70216 0,-0.70216 h 5.96843 c 0.70218,0 0.70218,-0.70216 0,-0.70216 h -5.96843 c -0.70218,0 -0.70218,-0.70217 0,-0.70217 h 5.96843 c 0.70218,0 0.70218,-0.70216 0,-0.70216 h -5.96843 c -0.70218,0 -0.70218,-0.70215 0,-0.70215 h 5.96843 c 0.70218,0 0.70218,-0.70222 0,-0.70222 h -5.96843 c -0.70218,0 -0.90057,-0.70215 -0.1984,-0.70215 h 6.69346 m -16.95051,-2.10649 h -6.29815 c -0.70217,0 -0.80063,0.70216 -0.0985,0.70216 h 5.96845 c 0.70216,0 0.70216,0.70216 0,0.70216 h -5.96845 c -0.70217,0 -0.70217,0.70217 0,0.70217 h 5.96845 c 0.70216,0 0.70216,0.70215 0,0.70215 h -5.96845 c -0.70217,0 -0.70217,0.70222 0,0.70222 h 5.96845 c 0.70216,0 0.70216,0.70215 0,0.70215 h -5.96845 c -0.70217,0 -0.70217,0.70216 0,0.70216 h 5.96845 c 0.70216,0 0.70216,0.70217 0,0.70217 h -5.96845 c -0.70217,0 -0.70217,0.70216 0,0.70216 h 5.96845 c 0.70216,0 0.70216,0.70216 0,0.70216 h -5.96845 c -0.70217,0 -0.70217,0.7022 0,0.7022 h 5.96845 c 0.70216,0 0.70216,0.70218 0,0.70218 h -5.96845 c -0.70217,0 -0.70217,0.70216 0,0.70216 h 5.96845 c 0.70216,0 0.70216,0.70215 0,0.70215 h -5.96845 c -0.70217,0 -0.70217,0.70216 0,0.70216 h 5.96845 c 0.70216,0 0.70216,0.70216 0,0.70216 h -5.96845 c -0.70217,0 -0.70217,0.70222 0,0.70222 h 5.96845 c 0.70216,0 0.70216,0.70216 0,0.70216 h -5.96845 c -0.70217,0 -0.70217,0.70216 0,0.70216 h 5.96845 c 0.70216,0 0.70216,0.70216 0,0.70216 h -5.96845 c -0.70217,0 -0.70217,0.70217 0,0.70217 h 5.96845 c 0.70216,0 0.70216,0.70215 0,0.70215 h -5.96845 c -0.70217,0 -0.70217,0.70221 0,0.70221 h 5.96845 c 0.70216,0 0.70216,0.70216 0,0.70216 h -5.96845 c -0.70217,0 -0.69752,0.70217 0.004,0.70217 h 5.95915 c 0.70217,0 0.4754,0.70216 -0.22675,0.70216 h -6.03226 M 150.0685,149.67763 h -14.72417 c -0.70218,0 -0.80063,0.70216 -0.0985,0.70216 h 6.16913 c 0.70216,0 0.50148,0.70216 -0.2007,0.70216 h -5.96843 c -0.70217,0 -0.70217,0.70217 0,0.70217 h 5.96843 c 0.70218,0 0.70218,0.70215 0,0.70215 h -5.96843 c -0.70217,0 -0.70217,0.70222 0,0.70222 h 5.96843 c 0.70218,0 0.70218,0.70215 0,0.70215 h -5.96843 c -0.70217,0 -0.70217,0.70216 0,0.70216 h 5.96843 c 0.70218,0 0.70218,0.70217 0,0.70217 h -5.96843 c -0.70217,0 -0.70217,0.70216 0,0.70216 h 5.96843 c 0.70218,0 0.70218,0.70216 0,0.70216 h -5.96843 c -0.70217,0 -0.70217,0.7022 0,0.7022 h 5.96843 c 0.70218,0 0.70218,0.70218 0,0.70218 h -5.96843 c -0.70217,0 -0.70217,0.70216 0,0.70216 h 5.96843 c 0.70218,0 0.70218,0.70215 0,0.70215 h -5.96843 c -0.70217,0 -0.70217,0.70216 0,0.70216 h 5.96843 c 0.70218,0 0.70218,0.70216 0,0.70216 h -5.96843 c -0.70217,0 -0.70217,0.70222 0,0.70222 h 5.96843 c 0.70218,0 0.70218,0.70216 0,0.70216 h -5.96843 c -0.70217,0 -0.70217,0.70216 0,0.70216 h 5.96843 c 0.70218,0 0.70218,0.70216 0,0.70216 h -5.96843 c -0.70217,0 -0.70217,0.70217 0,0.70217 h 5.96843 c 0.70218,0 0.70218,0.70215 0,0.70215 h -5.96843 c -0.70217,0 -0.70217,0.70221 0,0.70221 h 5.96843 c 0.70218,0 0.70218,0.70216 0,0.70216 h -5.96843 c -0.70217,0 -0.69723,0.70217 0.007,0.70217 h 5.95858 c 0.70216,0 0.47414,0.70216 -0.22802,0.70216 H 134.954 m -1.73574,-18.25639 h -14.72417 c -0.70217,0 -0.80063,0.70216 -0.0985,0.70216 h 14.39446 c 0.70218,0 0.70218,0.70216 0,0.70216 h -14.39446 c -0.70217,0 -0.70217,0.70217 0,0.70217 h 6.16882 c 0.70216,0 0.50178,0.70215 -0.20038,0.70215 h -5.96843 c -0.70217,0 -0.70217,0.70222 0,0.70222 h 5.96843 c 0.70218,0 0.70218,0.70215 0,0.70215 h -5.96843 c -0.70217,0 -0.70217,0.70216 0,0.70216 h 5.96843 c 0.70218,0 0.70218,0.70217 0,0.70217 h -5.96843 c -0.70217,0 -0.70217,0.70216 0,0.70216 h 5.96843 c 0.70218,0 0.70218,0.70216 0,0.70216 h -5.96843 c -0.70217,0 -0.70217,0.7022 0,0.7022 h 5.96843 c 0.70218,0 0.70218,0.70218 0,0.70218 h -5.96843 c -0.70217,0 -0.70217,0.70216 0,0.70216 h 5.96843 c 0.70218,0 0.70218,0.70215 0,0.70215 h -5.96843 c -0.70217,0 -0.70217,0.70216 0,0.70216 h 14.39446 c 0.70218,0 0.70218,-0.70216 0,-0.70216 h -5.96843 c -0.70217,0 -0.70217,-0.70215 0,-0.70215 h 5.96843 c 0.70218,0 0.70218,-0.70216 0,-0.70216 h -5.96843 c -0.70217,0 -0.70217,-0.70218 0,-0.70218 h 5.96843 c 0.70218,0 0.70218,-0.7022 0,-0.7022 h -5.96843 c -0.70217,0 -0.70217,-0.70216 0,-0.70216 h 5.96843 c 0.70218,0 0.70218,-0.70216 0,-0.70216 h -5.96843 c -0.70217,0 -0.70217,-0.70217 0,-0.70217 h 5.96843 c 0.70218,0 0.70218,-0.70216 0,-0.70216 h -5.96843 c -0.70217,0 -0.70217,-0.70215 0,-0.70215 h 5.96843 c 0.70218,0 0.70218,-0.70222 0,-0.70222 h -5.96843 c -0.70217,0 -0.90219,-0.70215 -0.20004,-0.70215 h 6.69507 m -25.37654,-2.10649 h -6.29815 c -0.70217,0 -0.80062,0.70216 -0.0985,0.70216 h 5.96844 c 0.70217,0 0.70217,0.70216 0,0.70216 h -5.96844 c -0.70217,0 -0.70217,0.70217 0,0.70217 h 5.96844 c 0.70217,0 0.70217,0.70215 0,0.70215 h -5.96844 c -0.70217,0 -0.70217,0.70222 0,0.70222 h 5.96844 c 0.70217,0 0.70217,0.70215 0,0.70215 h -5.96844 c -0.70217,0 -0.70217,0.70216 0,0.70216 h 5.96844 c 0.70217,0 0.70217,0.70217 0,0.70217 h -5.96844 c -0.70217,0 -0.70217,0.70216 0,0.70216 h 5.96844 c 0.70217,0 0.70217,0.70216 0,0.70216 h -5.96844 c -0.70217,0 -0.70217,0.7022 0,0.7022 h 5.96844 c 0.70217,0 0.70217,0.70218 0,0.70218 h -5.96844 c -0.70217,0 -0.70217,0.70216 0,0.70216 h 5.96844 c 0.70217,0 0.70217,0.70215 0,0.70215 h -5.96844 c -0.70217,0 -0.70217,0.70216 0,0.70216 h 5.96844 c 0.70217,0 0.70217,0.70216 0,0.70216 h -5.96844 c -0.70217,0 -0.70217,0.70222 0,0.70222 h 5.96844 c 0.70217,0 0.70217,0.70216 0,0.70216 h -5.96844 c -0.70217,0 -0.70217,0.70216 0,0.70216 h 5.96844 c 0.70217,0 0.70217,0.70216 0,0.70216 h -5.96844 c -0.70217,0 -0.70217,0.70217 0,0.70217 h 14.14869 M 99.513656,149.67763 h -14.72417 c -0.702164,0 -0.800623,0.70216 -0.09845,0.70216 h 14.394459 c 0.70217,0 0.70217,0.70216 0,0.70216 H 84.691028 c -0.702171,0 -0.702171,0.70217 0,0.70217 h 6.168827 c 0.702157,0 0.501791,0.70215 -0.200367,0.70215 H 84.69105 c -0.70217,0 -0.70217,0.70222 0,0.70222 h 5.968438 c 0.70217,0 0.70217,0.70215 0,0.70215 H 84.69105 c -0.70217,0 -0.70217,0.70216 0,0.70216 h 5.968438 c 0.70217,0 0.70217,0.70217 0,0.70217 H 84.69105 c -0.70217,0 -0.70217,0.70216 0,0.70216 h 5.968438 c 0.70217,0 0.70217,0.70216 0,0.70216 H 84.69105 c -0.70217,0 -0.70217,0.7022 0,0.7022 h 5.968438 c 0.70217,0 0.70217,0.70218 0,0.70218 H 84.69105 c -0.70217,0 -0.70217,0.70216 0,0.70216 h 5.968438 c 0.70217,0 0.70217,0.70215 0,0.70215 H 84.69105 c -0.70217,0 -0.70217,0.70216 0,0.70216 h 8.977243 c 0.70217,0 0.502059,0.70216 -0.200149,0.70216 h -8.777116 c -0.702171,0 -0.702171,0.70222 0,0.70222 h 6.168877 c 0.702171,0 0.501741,0.70216 -0.200417,0.70216 H 84.69105 c -0.70217,0 -0.70217,0.70216 0,0.70216 h 5.968438 c 0.70217,0 0.70217,0.70216 0,0.70216 H 84.69105 c -0.70217,0 -0.70217,0.70217 0,0.70217 h 5.968438 c 0.70217,0 0.70217,0.70215 0,0.70215 H 84.69105 c -0.70217,0 -0.70217,0.70221 0,0.70221 h 5.968438 c 0.70217,0 0.70217,0.70216 0,0.70216 H 84.69105 c -0.70217,0 -0.697241,0.70217 0.0059,0.70217 h 5.958576 c 0.70217,0 0.474144,0.70216 -0.228014,0.70216 h -6.029188 m -16.98253,-18.25639 h 14.717401 c 0.702171,0 0.80063,0.70216 0.09847,0.70216 h -14.39283 c -0.702171,0 -0.702171,0.70216 0,0.70216 h 14.391713 c 0.702167,0 0.69724,0.70217 -0.0059,0.70217 H 67.838617 c -0.702171,0 -0.702171,0.70215 0,0.70215 H 82.524004 M 65.809195,149.67763 H 51.08502 c -0.702171,0 -0.800629,0.70216 -0.09845,0.70216 h 14.394457 c 0.70217,0 0.70217,0.70216 0,0.70216 h -14.39465 c -0.702169,0 -0.702169,0.70217 0,0.70217 h 6.168819 c 0.702171,0 0.501793,0.70215 -0.200367,0.70215 h -5.968452 c -0.702169,0 -0.702169,0.70222 0,0.70222 h 5.968437 c 0.702169,0 0.702169,0.70215 0,0.70215 h -5.968437 c -0.702169,0 -0.702169,0.70216 0,0.70216 h 5.968437 c 0.702169,0 0.702169,0.70217 0,0.70217 h -5.968437 c -0.702169,0 -0.702169,0.70216 0,0.70216 h 8.977242 c 0.702171,0 0.502059,0.70216 -0.200155,0.70216 h -8.777087 c -0.702169,0 -0.702169,0.7022 0,0.7022 h 6.168851 c 0.702166,0 0.501741,0.70218 -0.20042,0.70218 h -5.968431 c -0.702169,0 -0.702169,0.70216 0,0.70216 h 5.968437 c 0.702169,0 0.702169,0.70215 0,0.70215 h -5.968437 c -0.702169,0 -0.702169,0.70216 0,0.70216 h 5.968437 c 0.702169,0 0.702169,0.70216 0,0.70216 h -5.968437 c -0.702169,0 -0.702169,0.70222 0,0.70222 h 5.968437 c 0.702169,0 0.702169,0.70216 0,0.70216 h -5.968437 c -0.702169,0 -0.702169,0.70216 0,0.70216 h 5.968437 c 0.702169,0 0.702169,0.70216 0,0.70216 h -5.968437 c -0.702169,0 -0.702169,0.70217 0,0.70217 h 5.968437 c 0.702169,0 0.702169,0.70215 0,0.70215 h -5.968437 c -0.702169,0 -0.702169,0.70221 0,0.70221 H 65.38084 c 0.702172,0 0.702172,-0.70221 0,-0.70221 h -5.968434 c -0.702172,0 -0.702172,-0.70215 0,-0.70215 h 5.968434 c 0.702172,0 0.702172,-0.70217 0,-0.70217 h -5.968434 c -0.702172,0 -0.702172,-0.70216 0,-0.70216 h 5.968434 c 0.702172,0 0.702172,-0.70216 0,-0.70216 h -5.968434 c -0.702172,0 -0.702172,-0.70216 0,-0.70216 h 5.968434 c 0.702172,0 0.702172,-0.70222 0,-0.70222 h -5.968434 c -0.702172,0 -0.702172,-0.70216 0,-0.70216 h 5.968434 c 0.702172,0 0.702172,-0.70216 0,-0.70216 h -5.968434 c -0.702172,0 -0.702172,-0.70215 0,-0.70215 h 5.968434 c 0.702172,0 0.603713,-0.70216 -0.09846,-0.70216 h -5.869975 c -0.702167,0 -0.902411,-0.70218 -0.200261,-0.70218 h 5.92565 m -16.180856,-7.72386 h -6.298147 c -0.702165,0 -0.800623,0.70216 -0.09847,0.70216 h 5.968435 c 0.702172,0 0.702172,0.70216 0,0.70216 H 42.56032 c -0.70217,0 -0.70217,0.70217 0,0.70217 h 5.968435 c 0.702172,0 0.702172,0.70215 0,0.70215 H 42.56032 c -0.70217,0 -0.70217,0.70222 0,0.70222 h 5.968435 c 0.702172,0 0.702172,0.70215 0,0.70215 H 42.56032 c -0.70217,0 -0.70217,0.70216 0,0.70216 h 5.968435 c 0.702172,0 0.702172,0.70217 0,0.70217 H 42.56032 c -0.70217,0 -0.70217,0.70216 0,0.70216 h 5.968435 c 0.702172,0 0.702172,0.70216 0,0.70216 H 42.56032 c -0.70217,0 -0.70217,0.7022 0,0.7022 h 5.968435 c 0.702172,0 0.702172,0.70218 0,0.70218 H 42.56032 c -0.70217,0 -0.70217,0.70216 0,0.70216 h 5.968435 c 0.702172,0 0.702172,0.70215 0,0.70215 H 42.56032 c -0.70217,0 -0.70217,0.70216 0,0.70216 h 5.968435 c 0.702172,0 0.702172,0.70216 0,0.70216 H 42.56032 c -0.70217,0 -0.70217,0.70222 0,0.70222 h 5.968435 c 0.702172,0 0.702172,0.70216 0,0.70216 H 42.56032 c -0.70217,0 -0.70217,0.70216 0,0.70216 h 5.968435 c 0.702172,0 0.702172,0.70216 0,0.70216 H 42.56032 c -0.70217,0 -0.70217,0.70217 0,0.70217 h 5.968435 c 0.702172,0 0.702172,0.70215 0,0.70215 H 42.56032 c -0.70217,0 -0.70217,0.70221 0,0.70221 h 5.968435 c 0.702172,0 0.702172,0.70216 0,0.70216 H 42.56032 c -0.70217,0 -0.697521,0.70217 0.0042,0.70217 h 5.959136 c 0.70217,0 0.475413,0.70216 -0.226747,0.70216 H 42.26469 m -1.7342,-18.25639 H 25.806316 c -0.702171,0 -0.80063,0.70216 -0.09845,0.70216 H 40.10233 c 0.70217,0 0.70217,0.70216 0,0.70216 H 25.707858 c -0.702172,0 -0.702172,0.70217 0,0.70217 h 6.168568 c 0.702165,0 0.502058,0.70215 -0.200154,0.70215 h -5.968437 c -0.702169,0 -0.702169,0.70222 0,0.70222 h 5.968437 c 0.70217,0 0.70217,0.70215 0,0.70215 h -5.968437 c -0.702169,0 -0.702169,0.70216 0,0.70216 h 5.968437 c 0.70217,0 0.70217,0.70217 0,0.70217 h -5.968437 c -0.702169,0 -0.702169,0.70216 0,0.70216 h 5.968437 c 0.70217,0 0.70217,0.70216 0,0.70216 h -5.968437 c -0.702169,0 -0.702169,0.7022 0,0.7022 h 5.968437 c 0.70217,0 0.70217,0.70218 0,0.70218 h -5.968437 c -0.702169,0 -0.702169,0.70216 0,0.70216 h 5.968437 c 0.70217,0 0.70217,0.70215 0,0.70215 h -5.968437 c -0.702169,0 -0.702169,0.70216 0,0.70216 h 5.968437 c 0.70217,0 0.70217,0.70216 0,0.70216 h -5.968437 c -0.702169,0 -0.702169,0.70222 0,0.70222 h 5.968437 c 0.70217,0 0.70217,0.70216 0,0.70216 h -5.968437 c -0.702169,0 -0.702169,0.70216 0,0.70216 h 5.968437 c 0.70217,0 0.70217,0.70216 0,0.70216 h -5.968437 c -0.702169,0 -0.702169,0.70217 0,0.70217 h 5.968437 c 0.70217,0 0.70217,0.70215 0,0.70215 h -5.968437 c -0.702169,0 -0.702169,0.70221 0,0.70221 h 14.394464 c 0.702171,0 0.702171,-0.70221 0,-0.70221 h -5.968435 c -0.702172,0 -0.702172,-0.70215 0,-0.70215 h 5.968435 c 0.702171,0 0.702171,-0.70217 0,-0.70217 h -5.968435 c -0.702172,0 -0.702172,-0.70216 0,-0.70216 h 5.968435 c 0.702171,0 0.702171,-0.70216 0,-0.70216 h -5.968435 c -0.702172,0 -0.702172,-0.70216 0,-0.70216 h 5.968435 c 0.702171,0 0.702171,-0.70222 0,-0.70222 h -5.968435 c -0.702172,0 -0.702172,-0.70216 0,-0.70216 h 6.495062 m 102.316654,-9.83035 h 6.69508 c 0.70218,0 0.70218,0.70216 0,0.70216 h -5.96843 c -0.70217,0 -0.70217,0.70217 0,0.70217 h 5.96843 c 0.70218,0 0.70218,0.70215 0,0.70215 h -5.96843 c -0.70217,0 -0.70217,0.70222 0,0.70222 h 5.96843 c 0.70218,0 0.70218,0.70215 0,0.70215 h -5.96843 c -0.70217,0 -0.70217,0.70216 0,0.70216 h 5.96843 c 0.70218,0 0.70218,0.70217 0,0.70217 h -5.96843 c -0.70217,0 -0.70217,0.70216 0,0.70216 h 5.96843 c 0.70218,0 0.70218,0.70216 0,0.70216 h -5.96843 c -0.70217,0 -0.70217,0.7022 0,0.7022 h 5.96843 c 0.70218,0 0.70218,0.70218 0,0.70218 h -5.96843 c -0.70217,0 -0.70217,0.70216 0,0.70216 h 5.96843 c 0.70218,0 0.70218,0.70215 0,0.70215 h -5.96843 c -0.70217,0 -0.70217,0.70216 0,0.70216 h 5.96843 c 0.70218,0 0.70218,0.70216 0,0.70216 h -5.96843 c -0.70217,0 -0.70217,0.70222 0,0.70222 h 5.96843 c 0.70218,0 0.70218,0.70216 0,0.70216 h -5.96843 c -0.70217,0 -0.70217,0.70216 0,0.70216 h 5.96843 c 0.70218,0 0.70218,0.70216 0,0.70216 h -5.96843 c -0.70217,0 -0.70217,0.70217 0,0.70217 h 5.96843 c 0.70218,0 0.70218,0.70215 0,0.70215 h -5.96843 c -0.70217,0 -0.70217,0.70221 0,0.70221 h 5.96843 c 0.70218,0 0.70218,0.70216 0,0.70216 h -5.96843 c -0.70217,0 -0.69725,0.70217 0.007,0.70217 h 5.95857 c 0.70218,0 0.47415,0.70216 -0.228,0.70216 h -6.02917 m -50.989761,-16.1499 h 6.695084 c 0.702171,0 0.702171,0.70215 0,0.70215 h -5.968435 c -0.702169,0 -0.702169,0.70222 0,0.70222 h 5.968435 c 0.702171,0 0.702171,0.70215 0,0.70215 h -5.968435 c -0.702169,0 -0.702169,0.70216 0,0.70216 h 5.968435 c 0.702171,0 0.702171,0.70217 0,0.70217 h -5.968435 c -0.702169,0 -0.702169,0.70216 0,0.70216 h 5.968435 c 0.702171,0 0.702171,0.70216 0,0.70216 h -5.968435 c -0.702169,0 -0.702169,0.7022 0,0.7022 h 5.968435 c 0.702171,0 0.702171,0.70218 0,0.70218 h -5.968435 c -0.702169,0 -0.702169,0.70216 0,0.70216 h 5.963504 c 0.70217,0 0.474144,0.70215 -0.228013,0.70215 h -6.262106 m -33.904677,-7.72386 h 6.69508 c 0.702171,0 0.702171,0.70215 0,0.70215 h -5.968435 c -0.702166,0 -0.702166,0.70222 0,0.70222 h 5.968435 c 0.702171,0 0.702171,0.70215 0,0.70215 h -5.968435 c -0.702166,0 -0.702166,0.70216 0,0.70216 h 5.963511 c 0.702164,0 0.474139,0.70217 -0.228074,0.70217 h -6.262081 m -25.478106,-3.51085 h 6.695086 c 0.702165,0 0.702165,0.70215 0,0.70215 h -5.968441 c -0.702165,0 -0.702165,0.70222 0,0.70222 h 5.968441 c 0.702165,0 0.702165,0.70215 0,0.70215 h -5.968441 c -0.702165,0 -0.702165,0.70216 0,0.70216 h 5.968441 c 0.702165,0 0.702165,0.70217 0,0.70217 h -5.968441 c -0.702165,0 -0.702165,0.70216 0,0.70216 h 5.968441 c 0.702165,0 0.702165,0.70216 0,0.70216 h -6.495064 m 33.704111,-3.5108 h 6.495059 c 0.70217,0 0.70217,0.70215 0,0.70215 h -5.968436 c -0.702165,0 -0.702165,0.70216 0,0.70216 h 5.968436 c 0.70217,0 0.70217,0.70217 0,0.70217 h -5.968436 c -0.702165,0 -0.702165,0.70216 0,0.70216 h 5.968436 c 0.70217,0 0.70217,0.70216 0,0.70216 h -5.968436 c -0.702165,0 -0.702165,0.7022 0,0.7022 h 14.148695 m 0.671189,0.70218 H 67.838569 c -0.702171,0 -0.702171,0.70216 0,0.70216 h 14.391715 c 0.702165,0 0.702165,0.70215 0,0.70215 H 67.838569 c -0.702171,0 -0.702171,0.70216 0,0.70216 h 14.386784 c 0.702169,0 0.474139,0.70216 -0.228021,0.70216 H 67.838569 c -0.702171,0 -0.702171,0.70222 0,0.70222 h 5.968436 c 0.70217,0 0.70217,0.70216 0,0.70216 h -5.968436 c -0.702171,0 -0.702171,0.70216 0,0.70216 h 5.968436 c 0.70217,0 0.70217,0.70216 0,0.70216 h -5.968436 c -0.702171,0 -0.702171,0.70217 0,0.70217 H 81.987232 M 192.29803,160.9123 h -14.92109 c -0.70218,0 -0.70218,0.70222 0,0.70222 h 6.16885 c 0.70216,0 0.50174,0.70216 -0.20042,0.70216 h -5.96844 c -0.70218,0 -0.70218,0.70216 0,0.70216 h 5.96844 c 0.70218,0 0.70218,0.70216 0,0.70216 h -5.96844 c -0.70218,0 -0.70218,0.70217 0,0.70217 h 5.96844 c 0.70218,0 0.70218,0.70215 0,0.70215 h -5.96844 c -0.70218,0 -0.70218,0.70221 0,0.70221 h 5.96844 c 0.70218,0 0.70218,0.70216 0,0.70216 h -5.96844 c -0.70218,0 -0.69724,0.70217 0.007,0.70217 h 5.95857 c 0.70218,0 0.47415,0.70216 -0.22802,0.70216 h -6.02917 m -43.76742,-7.02172 h -14.92108 c -0.70217,0 -0.70217,0.70222 0,0.70222 h 6.16885 c 0.70218,0 0.50174,0.70216 -0.20042,0.70216 h -5.96843 c -0.70217,0 -0.70217,0.70216 0,0.70216 h 5.96843 c 0.70218,0 0.70218,0.70216 0,0.70216 h -5.96843 c -0.70217,0 -0.70217,0.70217 0,0.70217 h 5.96843 c 0.70218,0 0.70218,0.70215 0,0.70215 h -5.96843 c -0.70217,0 -0.70217,0.70221 0,0.70221 h 5.96843 c 0.70218,0 0.70218,0.70216 0,0.70216 h -5.96843 c -0.70217,0 -0.69723,0.70217 0.007,0.70217 h 5.95858 c 0.70216,0 0.47414,0.70216 -0.22802,0.70216 h -6.02976 m 66.97503,-6.3195 h 6.6953 c 0.70216,0 0.70216,0.70216 0,0.70216 h -5.96845 c -0.70216,0 -0.70216,0.70216 0,0.70216 h 5.96845 c 0.70216,0 0.70216,0.70216 0,0.70216 h -5.96845 c -0.70216,0 -0.70216,0.70217 0,0.70217 h 5.96845 c 0.70216,0 0.70216,0.70215 0,0.70215 h -5.96845 c -0.70216,0 -0.70216,0.70221 0,0.70221 h 5.96845 c 0.70216,0 0.70216,0.70216 0,0.70216 h -5.96845 c -0.70216,0 -0.69723,0.70217 0.007,0.70217 h 5.95859 c 0.70217,0 0.47413,0.70216 -0.22803,0.70216 h -6.02916 m -59.41562,-6.3195 h 6.69531 c 0.70218,0 0.70218,0.70216 0,0.70216 h -5.96843 c -0.70216,0 -0.70216,0.70216 0,0.70216 h 5.96843 c 0.70218,0 0.70218,0.70216 0,0.70216 h -5.96843 c -0.70216,0 -0.70216,0.70217 0,0.70217 h 5.96843 c 0.70218,0 0.70218,0.70215 0,0.70215 h -5.96843 c -0.70216,0 -0.70216,0.70221 0,0.70221 h 5.96843 c 0.70218,0 0.70218,0.70216 0,0.70216 h -5.96843 c -0.70216,0 -0.69723,0.70217 0.007,0.70217 h 5.95858 c 0.70216,0 0.47414,0.70216 -0.22802,0.70216 h -6.02915 m -27.687493,-6.3195 h -5.925635 c -0.70217,0 -0.501956,0.70216 0.200252,0.70216 h 5.869983 c 0.70217,0 0.800622,0.70216 0.0985,0.70216 H 93.12172 c -0.70217,0 -0.70217,0.70216 0,0.70216 h 5.968447 c 0.702171,0 0.702171,0.70217 0,0.70217 H 93.12172 c -0.70217,0 -0.70217,0.70215 0,0.70215 h 5.968447 c 0.702171,0 0.702171,0.70221 0,0.70221 H 93.12172 c -0.70217,0 -0.70217,0.70216 0,0.70216 h 5.968447 c 0.702171,0 0.697239,0.70217 -0.0064,0.70217 h -5.958585 c -0.70217,0 -0.474144,0.70216 0.228026,0.70216 h 6.029134 m 16.983818,-2.8087 h -14.82194 c -0.70217,0 -0.70217,0.70221 0,0.70221 h 14.39172 c 0.70215,0 0.70215,0.70216 0,0.70216 h -14.39172 c -0.70217,0 -0.69724,0.70217 0.007,0.70217 h 14.38186 c 0.70218,0 0.47415,0.70216 -0.22803,0.70216 h -14.45528 m -18.590563,-2.8087 H 67.838638 c -0.702171,0 -0.702171,0.70221 0,0.70221 h 14.391715 c 0.702165,0 0.702165,0.70216 0,0.70216 H 67.838638 c -0.702171,0 -0.700202,0.70217 0.0014,0.70217 h 14.384817 c 0.702169,0 0.474139,0.70216 -0.228021,0.70216 H 67.547367 m 99.472643,-1.40433 H 152.0989 c -0.70216,0 -0.70216,0.70217 0,0.70217 h 14.39046 c 0.70215,0 0.51558,0.70216 -0.18658,0.70216 h -14.73051 m -85.664617,-1.40433 h -14.92109 c -0.702172,0 -0.697241,0.70217 0.0059,0.70217 H 65.37707 c 0.702171,0 0.474141,0.70216 -0.228019,0.70216 H 50.693797 M 40.630483,166.52969 H 25.709391 c -0.702171,0 -0.69724,0.70217 0.0059,0.70217 h 14.384561 c 0.702171,0 0.474139,0.70216 -0.228022,0.70216 H 25.416627" />
    </g>
  </g>
</svg>
